<svg width="807" height="599" viewBox="0 0 807 599" fill="none" xmlns="http://www.w3.org/2000/svg">
<g clip-path="url(#clip0_714_117)">
<path d="M801.8 418.6C798.9 403.1 784.1 316.1 769.8 274C760.4 246.3 756.7 221 752.8 209.1C740.8 173.4 719.8 143.4 719.8 143.4C719.8 143.4 710.3 130.3 709.7 127.1C709.1 123.9 705 118.5 705 118.5C705 118.5 687.6 112.8 642.7 112.8C597.8 112.8 589 117.8 589 117.8C587.32 119.723 585.325 121.346 583.1 122.6C579.6 124.4 571.4 124.3 571.4 124.3H538C537.837 124.272 537.669 124.284 537.512 124.336C537.355 124.389 537.213 124.479 537.1 124.6C536.769 125.22 536.565 125.9 536.5 126.6H270.4C270.299 125.908 270.097 125.234 269.8 124.6C269.684 124.484 269.542 124.396 269.385 124.344C269.229 124.292 269.063 124.277 268.9 124.3H235.5C235.5 124.3 227.3 124.5 223.8 122.6C221.551 121.382 219.55 119.754 217.9 117.8C217.9 117.8 209.1 112.8 164.2 112.8C119.3 112.8 101.9 118.5 101.9 118.5C101.9 118.5 97.8 123.8 97.2 127.1C96.6 130.4 87.1 143.4 87.1 143.4C87.1 143.4 66.1 173.4 54.1 209.1C50.1 221 46.4 246.3 37.1 274C22.8 316.1 8 403.1 5.1 418.6C0.8 441.8 0.5 508.8 0.5 508.8C0.5 508.8 5 562.2 36.7 583.7C68.4 605.2 93.4 597.7 93.4 597.7C93.4 597.7 126.5 589.5 151.2 555.8C175.9 522.1 207.8 426.6 207.8 426.6C209.405 424.541 211.33 422.752 213.5 421.3C215.386 419.985 217.536 419.098 219.8 418.7L403.5 418.8L587.2 418.7C589.464 419.098 591.614 419.985 593.5 421.3C595.67 422.752 597.595 424.541 599.2 426.6C599.2 426.6 631.1 522 655.8 555.8C680.5 589.6 713.6 597.7 713.6 597.7C713.6 597.7 738.6 605.2 770.3 583.7C802 562.2 806.5 508.8 806.5 508.8C806.5 508.8 806.2 441.8 801.8 418.6Z" fill="#D42F2F"/>
<g opacity="0.06">
<path d="M37.1 276C46.5 248.3 50.2 223 54.1 211.1C66.1 175.4 87.1 145.4 87.1 145.4C87.1 145.4 96.6 132.3 97.2 129.1C97.8 125.9 101.9 120.5 101.9 120.5C101.9 120.5 119.3 114.8 164.2 114.8C209.1 114.8 217.9 119.8 217.9 119.8C219.58 121.723 221.575 123.346 223.8 124.6C227.3 126.4 235.5 126.3 235.5 126.3H268.9C269.063 126.272 269.231 126.284 269.388 126.336C269.545 126.389 269.687 126.479 269.8 126.6C270.131 127.22 270.335 127.9 270.4 128.6H536.6C536.701 127.908 536.903 127.234 537.2 126.6C537.316 126.484 537.458 126.396 537.615 126.344C537.771 126.292 537.937 126.277 538.1 126.3H571.5C571.5 126.3 579.7 126.5 583.2 124.6C585.449 123.382 587.45 121.754 589.1 119.8C589.1 119.8 597.9 114.8 642.8 114.8C687.7 114.8 705.1 120.5 705.1 120.5C705.1 120.5 709.2 125.8 709.8 129.1C710.4 132.4 719.9 145.4 719.9 145.4C719.9 145.4 740.9 175.4 752.9 211.1C756.9 223 760.6 248.3 769.9 276C784.2 318.1 799 405.1 801.9 420.6C805.8 441.5 806.5 497.9 806.6 508.9V508.8C806.6 508.8 806.3 441.9 801.9 418.7C799 403.2 784.2 316.2 769.9 274.1C760.5 246.4 756.8 221.1 752.9 209.2C740.9 173.5 719.9 143.5 719.9 143.5C719.9 143.5 710.4 130.4 709.8 127.2C709.2 124 705.1 118.6 705.1 118.6C705.1 118.6 687.7 112.9 642.8 112.9C597.9 112.9 589.1 117.9 589.1 117.9C587.42 119.823 585.425 121.446 583.2 122.7C579.7 124.5 571.5 124.4 571.5 124.4H538.1C537.937 124.372 537.769 124.384 537.612 124.436C537.455 124.489 537.313 124.579 537.2 124.7C536.869 125.32 536.665 126 536.6 126.7H270.4C270.299 126.007 270.097 125.334 269.8 124.7C269.684 124.584 269.542 124.496 269.385 124.444C269.229 124.392 269.063 124.377 268.9 124.4H235.5C235.5 124.4 227.3 124.6 223.8 122.7C221.551 121.482 219.55 119.854 217.9 117.9C217.9 117.9 209.1 112.9 164.2 112.9C119.3 112.9 101.9 118.6 101.9 118.6C101.9 118.6 97.8 123.9 97.2 127.2C96.6 130.5 87.1 143.5 87.1 143.5C87.1 143.5 66.1 173.5 54.1 209.2C50.1 221.1 46.4 246.4 37.1 274.1C22.8 316.2 8 403.2 5.1 418.7C0.8 441.8 0.5 508.8 0.5 508.8V508.9C0.6 498 1.2 441.5 5.2 420.6C8.1 405.2 22.8 318.1 37.1 276Z" fill="white"/>
</g>
<path d="M351.7 360C351.7 339.711 343.64 320.253 329.294 305.906C314.947 291.56 295.489 283.5 275.2 283.5C254.911 283.5 235.453 291.56 221.106 305.906C206.76 320.253 198.7 339.711 198.7 360C198.683 360.668 198.717 361.337 198.8 362C198.8 362.7 198.7 363.3 198.7 364C198.7 384.289 206.76 403.747 221.106 418.094C235.453 432.44 254.911 440.5 275.2 440.5C295.489 440.5 314.947 432.44 329.294 418.094C343.64 403.747 351.7 384.289 351.7 364C351.717 363.332 351.683 362.663 351.6 362C351.6 361.3 351.7 360.6 351.7 360Z" fill="#E6E6E6"/>
<path d="M275.2 429C315.517 429 348.2 396.317 348.2 356C348.2 315.683 315.517 283 275.2 283C234.883 283 202.2 315.683 202.2 356C202.2 396.317 234.883 429 275.2 429Z" fill="white"/>
<path d="M275.2 407.5C303.643 407.5 326.7 384.443 326.7 356C326.7 327.557 303.643 304.5 275.2 304.5C246.757 304.5 223.7 327.557 223.7 356C223.7 384.443 246.757 407.5 275.2 407.5Z" fill="#D42F2F"/>
<path d="M608.3 360C608.3 339.711 600.24 320.253 585.894 305.906C571.547 291.56 552.089 283.5 531.8 283.5C511.511 283.5 492.053 291.56 477.706 305.906C463.36 320.253 455.3 339.711 455.3 360C455.283 360.668 455.317 361.337 455.4 362C455.4 362.7 455.3 363.3 455.3 364C455.3 384.289 463.36 403.747 477.706 418.094C492.053 432.44 511.511 440.5 531.8 440.5C552.089 440.5 571.547 432.44 585.894 418.094C600.24 403.747 608.3 384.289 608.3 364C608.317 363.332 608.283 362.663 608.2 362C608.281 361.337 608.314 360.668 608.3 360Z" fill="#E6E6E6"/>
<path d="M531.8 429C572.117 429 604.8 396.317 604.8 356C604.8 315.683 572.117 283 531.8 283C491.483 283 458.8 315.683 458.8 356C458.8 396.317 491.483 429 531.8 429Z" fill="white"/>
<path d="M531.8 407.5C560.243 407.5 583.3 384.443 583.3 356C583.3 327.557 560.243 304.5 531.8 304.5C503.357 304.5 480.3 327.557 480.3 356C480.3 384.443 503.357 407.5 531.8 407.5Z" fill="#D42F2F"/>
<path d="M535.3 128C535.068 126.443 534.283 125.02 533.09 123.993C531.897 122.965 530.375 122.4 528.8 122.4H278.2C276.62 122.381 275.088 122.939 273.89 123.97C272.693 125.001 271.914 126.435 271.7 128C271.617 128.697 271.583 129.399 271.6 130.1V257.5C271.599 259.615 272.014 261.709 272.823 263.663C273.632 265.617 274.817 267.392 276.313 268.887C277.808 270.383 279.583 271.568 281.537 272.377C283.491 273.186 285.585 273.601 287.7 273.6H519.3C521.415 273.601 523.509 273.186 525.463 272.377C527.417 271.568 529.192 270.383 530.687 268.887C532.183 267.392 533.368 265.617 534.177 263.663C534.986 261.709 535.401 259.615 535.4 257.5V130.1C535.467 129.399 535.433 128.692 535.3 128Z" fill="white"/>
<path d="M652.8 339.1C704.88 339.1 747.1 296.88 747.1 244.8C747.1 192.72 704.88 150.5 652.8 150.5C600.72 150.5 558.5 192.72 558.5 244.8C558.5 296.88 600.72 339.1 652.8 339.1Z" fill="#E5E5E5"/>
<path d="M154.2 339.1C206.28 339.1 248.5 296.88 248.5 244.8C248.5 192.72 206.28 150.5 154.2 150.5C102.12 150.5 59.9 192.72 59.9 244.8C59.9 296.88 102.12 339.1 154.2 339.1Z" fill="#E5E5E5"/>
<path d="M230.9 254.1L240.4 245.2C240.518 245.092 240.613 244.961 240.677 244.815C240.742 244.668 240.775 244.51 240.775 244.35C240.775 244.19 240.742 244.032 240.677 243.885C240.613 243.739 240.518 243.608 240.4 243.5L230.9 234.6C230.742 234.447 230.543 234.344 230.327 234.303C230.111 234.262 229.888 234.286 229.685 234.372C229.483 234.457 229.31 234.6 229.188 234.783C229.066 234.966 229.001 235.18 229 235.4V253.2C228.994 253.423 229.054 253.642 229.17 253.831C229.287 254.021 229.456 254.173 229.657 254.268C229.858 254.363 230.083 254.398 230.304 254.368C230.524 254.338 230.731 254.245 230.9 254.1Z" fill="white"/>
<path d="M145.5 169.8H163.3C163.52 169.799 163.734 169.734 163.917 169.612C164.1 169.49 164.243 169.317 164.329 169.115C164.414 168.912 164.438 168.689 164.397 168.473C164.356 168.257 164.253 168.058 164.1 167.9L155.2 158.4C155.092 158.282 154.961 158.187 154.815 158.123C154.668 158.058 154.51 158.025 154.35 158.025C154.19 158.025 154.032 158.058 153.885 158.123C153.739 158.187 153.608 158.282 153.5 158.4L144.6 167.9C144.463 168.071 144.377 168.277 144.352 168.495C144.327 168.713 144.363 168.933 144.457 169.131C144.551 169.329 144.698 169.497 144.883 169.615C145.067 169.733 145.281 169.797 145.5 169.8Z" fill="white"/>
<path d="M78 234.6L68.5 243.5C68.3818 243.608 68.2873 243.739 68.2227 243.885C68.158 244.032 68.1246 244.19 68.1246 244.35C68.1246 244.51 68.158 244.668 68.2227 244.815C68.2873 244.961 68.3818 245.092 68.5 245.2L78 254.1C78.1577 254.253 78.357 254.356 78.573 254.397C78.789 254.438 79.0121 254.414 79.2147 254.328C79.4172 254.243 79.5902 254.1 79.7121 253.917C79.8339 253.734 79.8993 253.52 79.9 253.3V235.5C79.9152 235.274 79.8618 235.048 79.747 234.853C79.6322 234.657 79.4612 234.501 79.2563 234.403C79.0513 234.306 78.8219 234.273 78.5979 234.308C78.3739 234.343 78.1655 234.445 78 234.6Z" fill="white"/>
<path d="M163.3 318.8H145.5C145.28 318.801 145.066 318.866 144.883 318.988C144.7 319.11 144.557 319.283 144.471 319.485C144.386 319.688 144.362 319.911 144.403 320.127C144.444 320.343 144.547 320.542 144.7 320.7L153.6 330.2C153.708 330.318 153.839 330.413 153.985 330.477C154.132 330.542 154.29 330.575 154.45 330.575C154.61 330.575 154.768 330.542 154.915 330.477C155.061 330.413 155.192 330.318 155.3 330.2L164.2 320.7C164.337 320.529 164.423 320.323 164.448 320.105C164.473 319.887 164.437 319.667 164.343 319.469C164.249 319.271 164.102 319.103 163.917 318.985C163.733 318.867 163.519 318.803 163.3 318.8Z" fill="white"/>
<path opacity="0.1" d="M105.7 544.5C65.2 541.7 29.9 524.2 18.4 514C6.9 503.8 0.9 482.4 0.9 482.4C0.5 497.4 0.5 508.7 0.5 508.7C0.5 508.7 5 562.1 36.7 583.6C68.4 605.1 93.4 597.6 93.4 597.6C93.4 597.6 126.5 589.4 151.2 555.7C156.466 548.116 161.178 540.162 165.3 531.9C165.2 531.9 146.1 547.2 105.7 544.5Z" fill="#E6E6E6"/>
<path opacity="0.22" d="M90.5 592.5C78 594.3 59.2 590.5 45.4 584.8C31.8 579.1 21.4 568.4 21.4 568.4C25.5903 574.307 30.7658 579.449 36.7 583.6C68.4 605.1 93.4 597.6 93.4 597.6C93.4 597.6 105.1 594.7 119.7 585.3C110.201 588.565 100.428 590.975 90.5 592.5Z" fill="black"/>
<path opacity="0.1" d="M701.3 544.5C741.8 541.7 777.1 524.2 788.6 514C800.1 503.8 806.1 482.5 806.1 482.5C806.5 497.5 806.5 508.8 806.5 508.8C806.5 508.8 802 562.2 770.3 583.7C738.6 605.2 713.6 597.7 713.6 597.7C713.6 597.7 680.5 589.5 655.8 555.8C650.534 548.216 645.822 540.262 641.7 532C641.8 531.9 660.9 547.2 701.3 544.5Z" fill="#E6E6E6"/>
<path opacity="0.22" d="M716.5 592.5C729 594.3 747.8 590.5 761.6 584.8C775.2 579.1 785.6 568.4 785.6 568.4C781.41 574.307 776.234 579.449 770.3 583.6C738.6 605.1 713.6 597.6 713.6 597.6C713.6 597.6 701.9 594.7 687.3 585.3C696.799 588.565 706.571 590.975 716.5 592.5Z" fill="black"/>
<path d="M241 143.5C244.315 143.5 247.495 144.817 249.839 147.161C252.183 149.505 253.5 152.685 253.5 156V174.3C253.5 177.615 252.183 180.795 249.839 183.139C247.495 185.483 244.315 186.8 241 186.8C237.685 186.8 234.505 185.483 232.161 183.139C229.817 180.795 228.5 177.615 228.5 174.3V156C228.5 152.685 229.817 149.505 232.161 147.161C234.505 144.817 237.685 143.5 241 143.5ZM241 141.8C237.238 141.813 233.634 143.313 230.974 145.974C228.313 148.634 226.813 152.238 226.8 156V174.3C226.8 178.066 228.296 181.678 230.959 184.341C233.622 187.004 237.234 188.5 241 188.5C244.766 188.5 248.378 187.004 251.041 184.341C253.704 181.678 255.2 178.066 255.2 174.3V156C255.201 154.135 254.835 152.288 254.122 150.564C253.409 148.841 252.363 147.275 251.044 145.956C249.725 144.637 248.159 143.591 246.436 142.878C244.712 142.165 242.865 141.799 241 141.8Z" fill="#E6E6E6"/>
<path d="M241 143.5C237.685 143.5 234.505 144.817 232.161 147.161C229.817 149.505 228.5 152.685 228.5 156V174.3C228.5 177.615 229.817 180.795 232.161 183.139C234.505 185.483 237.685 186.8 241 186.8C244.315 186.8 247.495 185.483 249.839 183.139C252.183 180.795 253.5 177.615 253.5 174.3V156C253.5 152.685 252.183 149.505 249.839 147.161C247.495 144.817 244.315 143.5 241 143.5Z" fill="#F0F0F0"/>
<path d="M566 143.5C569.315 143.5 572.495 144.817 574.839 147.161C577.183 149.505 578.5 152.685 578.5 156V174.3C578.5 177.615 577.183 180.795 574.839 183.139C572.495 185.483 569.315 186.8 566 186.8C562.685 186.8 559.505 185.483 557.161 183.139C554.817 180.795 553.5 177.615 553.5 174.3V156C553.5 152.685 554.817 149.505 557.161 147.161C559.505 144.817 562.685 143.5 566 143.5ZM566 141.8C562.238 141.813 558.634 143.313 555.974 145.974C553.314 148.634 551.813 152.238 551.8 156V174.3C551.8 178.066 553.296 181.678 555.959 184.341C558.622 187.004 562.234 188.5 566 188.5C569.766 188.5 573.378 187.004 576.041 184.341C578.704 181.678 580.2 178.066 580.2 174.3V156C580.201 154.135 579.835 152.288 579.122 150.564C578.409 148.841 577.363 147.275 576.044 145.956C574.725 144.637 573.159 143.591 571.436 142.878C569.712 142.165 567.865 141.799 566 141.8Z" fill="#E6E6E6"/>
<path d="M566 143.5C562.685 143.5 559.505 144.817 557.161 147.161C554.817 149.505 553.5 152.685 553.5 156V174.3C553.5 177.615 554.817 180.795 557.161 183.139C559.505 185.483 562.685 186.8 566 186.8C569.315 186.8 572.495 185.483 574.839 183.139C577.183 180.795 578.5 177.615 578.5 174.3V156C578.5 152.685 577.183 149.505 574.839 147.161C572.495 144.817 569.315 143.5 566 143.5Z" fill="#F0F0F0"/>
<path d="M92.9997 244.325L92.9997 244.325L93.0003 244.3L92.9997 244.275L92.9997 244.275L92.9997 244.275L92.9997 244.274L92.9996 244.268L92.999 244.244L92.9972 244.147C92.9958 244.06 92.994 243.931 92.9928 243.766C92.9903 243.434 92.9899 242.955 92.9984 242.369C93.0153 241.195 93.0678 239.597 93.2091 237.895C93.3508 236.189 93.5799 234.402 93.9442 232.841C94.3162 231.248 94.7997 230.026 95.37 229.338C95.5177 229.16 95.9931 228.868 97.0176 228.587C97.9819 228.323 99.2478 228.115 100.736 227.959C103.706 227.647 107.431 227.556 111.117 227.587C114.796 227.619 118.41 227.771 121.144 227.94C122.512 228.025 123.655 228.114 124.472 228.193C124.883 228.233 125.202 228.269 125.424 228.3C125.485 228.309 125.535 228.317 125.575 228.323C125.598 228.341 125.628 228.364 125.663 228.391C125.793 228.492 125.969 228.632 126.187 228.81C126.622 229.164 127.212 229.654 127.907 230.24C129.298 231.411 131.103 232.957 132.93 234.553C134.757 236.15 136.602 237.793 138.075 239.158C138.812 239.841 139.45 240.45 139.944 240.946C140.456 241.461 140.762 241.804 140.881 241.973C141.529 242.899 141.769 243.518 141.858 243.854C141.899 244.011 141.908 244.108 141.909 244.148L141.876 244.3L141.909 244.452C141.908 244.492 141.899 244.589 141.858 244.746C141.769 245.082 141.529 245.701 140.881 246.627C140.762 246.796 140.456 247.139 139.944 247.654C139.45 248.15 138.812 248.759 138.075 249.442C136.602 250.807 134.757 252.45 132.93 254.047C131.103 255.643 129.298 257.189 127.907 258.36C127.212 258.946 126.622 259.436 126.187 259.79C125.969 259.968 125.793 260.108 125.663 260.209C125.628 260.236 125.598 260.259 125.575 260.277C125.535 260.283 125.485 260.291 125.424 260.3C125.202 260.331 124.883 260.367 124.472 260.407C123.655 260.486 122.512 260.575 121.144 260.66C118.41 260.829 114.796 260.981 111.117 261.013C107.431 261.044 103.706 260.953 100.736 260.641C99.2478 260.485 97.9819 260.277 97.0176 260.013C95.9931 259.732 95.5177 259.44 95.37 259.262C94.7996 258.574 94.3162 257.352 93.9442 255.759C93.5799 254.198 93.3508 252.411 93.2091 250.705C93.0678 249.003 93.0153 247.405 92.9984 246.231C92.9899 245.645 92.9903 245.166 92.9928 244.834C92.994 244.669 92.9958 244.54 92.9972 244.453L92.999 244.356L92.9996 244.332L92.9997 244.326L92.9997 244.325L92.9997 244.325Z" fill="white" stroke="#F0F0F0" stroke-width="2"/>
<path opacity="0.25" d="M140.881 246.627L140.878 246.631C140.718 246.862 140.248 247.37 139.477 248.122C138.733 248.847 137.774 249.738 136.703 250.709C134.87 252.372 132.724 254.256 130.797 255.923C129.003 252.32 128.077 248.342 128.1 244.306L128.1 244.305C128.119 240.272 129.047 236.302 130.807 232.686C132.731 234.35 134.873 236.231 136.703 237.891C137.774 238.862 138.733 239.753 139.477 240.478C140.248 241.23 140.718 241.738 140.878 241.969L140.878 241.969L140.881 241.973C141.529 242.899 141.769 243.518 141.858 243.854C141.899 244.011 141.908 244.108 141.91 244.148L141.876 244.3L141.91 244.452C141.908 244.492 141.899 244.589 141.858 244.746C141.769 245.082 141.529 245.701 140.881 246.627Z" fill="#F0F0F0" stroke="#F0F0F0" stroke-width="2"/>
<path d="M154.846 231.758C154.689 231.799 154.592 231.808 154.552 231.809L154.4 231.776L154.248 231.809C154.208 231.808 154.111 231.799 153.955 231.758C153.618 231.669 152.999 231.429 152.074 230.781C151.904 230.662 151.561 230.356 151.046 229.844C150.55 229.35 149.942 228.712 149.258 227.975C147.893 226.502 146.25 224.657 144.653 222.83C143.057 221.003 141.511 219.198 140.34 217.807C139.754 217.112 139.264 216.522 138.91 216.087C138.732 215.869 138.592 215.693 138.491 215.563C138.464 215.528 138.441 215.498 138.423 215.475C138.417 215.435 138.409 215.385 138.4 215.324C138.369 215.102 138.333 214.783 138.293 214.372C138.214 213.555 138.125 212.412 138.04 211.044C137.871 208.31 137.719 204.696 137.688 201.017C137.656 197.331 137.747 193.606 138.059 190.636C138.215 189.148 138.423 187.882 138.687 186.918C138.968 185.893 139.26 185.418 139.438 185.27C140.126 184.7 141.348 184.216 142.941 183.844C144.502 183.48 146.289 183.251 147.995 183.109C149.697 182.968 151.295 182.915 152.469 182.898C153.056 182.89 153.534 182.89 153.866 182.893C154.031 182.894 154.16 182.896 154.247 182.897L154.344 182.899L154.368 182.9L154.374 182.9L154.375 182.9L154.375 182.9L154.375 182.9L154.4 182.9L154.425 182.9L154.425 182.9L154.425 182.9L154.426 182.9L154.432 182.9L154.456 182.899L154.553 182.897C154.64 182.896 154.769 182.894 154.934 182.893C155.266 182.89 155.745 182.89 156.331 182.898C157.505 182.915 159.103 182.968 160.805 183.109C162.511 183.251 164.298 183.48 165.859 183.844C167.452 184.216 168.674 184.7 169.362 185.27C169.54 185.418 169.832 185.893 170.113 186.918C170.377 187.882 170.585 189.148 170.741 190.636C171.053 193.606 171.144 197.331 171.113 201.017C171.082 204.696 170.929 208.31 170.76 211.044C170.675 212.412 170.586 213.555 170.507 214.372C170.468 214.783 170.431 215.102 170.4 215.324C170.391 215.385 170.383 215.435 170.377 215.475C170.359 215.498 170.337 215.528 170.309 215.563C170.208 215.693 170.068 215.869 169.89 216.087C169.536 216.522 169.046 217.112 168.46 217.807C167.289 219.198 165.743 221.003 164.147 222.83C162.55 224.657 160.907 226.502 159.542 227.975C158.859 228.712 158.25 229.35 157.754 229.844C157.239 230.356 156.896 230.662 156.727 230.781C155.801 231.429 155.182 231.669 154.846 231.758Z" fill="white" stroke="#F0F0F0" stroke-width="2"/>
<path opacity="0.25" d="M152.074 230.781L152.069 230.778C151.841 230.62 151.341 230.153 150.596 229.381C149.878 228.637 148.997 227.678 148.03 226.606C146.643 225.066 145.097 223.31 143.63 221.644C143.347 221.322 143.066 221.004 142.79 220.691C146.389 218.901 150.363 217.977 154.394 218L154.395 218C158.428 218.019 162.398 218.947 166.014 220.707C164.35 222.631 162.469 224.773 160.809 226.603C159.838 227.674 158.947 228.633 158.222 229.377C157.47 230.148 156.962 230.618 156.731 230.778L156.731 230.778L156.727 230.781C155.801 231.429 155.182 231.669 154.846 231.758C154.689 231.799 154.592 231.808 154.552 231.809L154.4 231.776L154.248 231.809C154.208 231.808 154.111 231.799 153.955 231.758C153.618 231.669 152.999 231.429 152.074 230.781Z" fill="#F0F0F0" stroke="#F0F0F0" stroke-width="2"/>
<path d="M166.942 244.846C166.901 244.689 166.892 244.592 166.891 244.552L166.924 244.4L166.891 244.248C166.892 244.208 166.901 244.111 166.942 243.955C167.031 243.618 167.271 242.999 167.919 242.073C168.038 241.904 168.344 241.561 168.856 241.046C169.35 240.55 169.989 239.941 170.725 239.258C172.198 237.893 174.043 236.25 175.87 234.653C177.697 233.057 179.502 231.511 180.893 230.34C181.588 229.754 182.178 229.264 182.613 228.91C182.831 228.732 183.007 228.592 183.137 228.491C183.172 228.464 183.202 228.441 183.225 228.423C183.265 228.417 183.315 228.409 183.376 228.4C183.598 228.369 183.917 228.333 184.328 228.293C185.145 228.214 186.288 228.125 187.656 228.04C190.39 227.871 194.004 227.719 197.683 227.687C201.369 227.656 205.094 227.747 208.064 228.059C209.552 228.215 210.818 228.423 211.782 228.687C212.807 228.968 213.282 229.26 213.43 229.438C214 230.126 214.484 231.348 214.856 232.941C215.22 234.502 215.449 236.289 215.591 237.995C215.732 239.697 215.785 241.295 215.802 242.469C215.81 243.055 215.81 243.534 215.807 243.866C215.806 244.031 215.804 244.16 215.803 244.247L215.801 244.344L215.8 244.368L215.8 244.374L215.8 244.375V244.375L215.8 244.375L215.8 244.4L215.8 244.425L215.8 244.425V244.425L215.8 244.426L215.8 244.432L215.801 244.456L215.803 244.553C215.804 244.64 215.806 244.769 215.807 244.934C215.81 245.266 215.81 245.745 215.802 246.331C215.785 247.505 215.732 249.103 215.591 250.805C215.449 252.511 215.22 254.298 214.856 255.859C214.484 257.452 214 258.674 213.43 259.362C213.282 259.54 212.807 259.832 211.782 260.113C210.818 260.377 209.552 260.585 208.064 260.741C205.094 261.053 201.369 261.144 197.683 261.113C194.004 261.081 190.39 260.929 187.656 260.76C186.288 260.675 185.145 260.586 184.328 260.507C183.917 260.467 183.598 260.431 183.376 260.4C183.315 260.391 183.265 260.383 183.225 260.377C183.202 260.359 183.172 260.336 183.137 260.309C183.007 260.208 182.831 260.068 182.613 259.89C182.178 259.536 181.588 259.046 180.893 258.46C179.502 257.289 177.697 255.743 175.87 254.147C174.043 252.55 172.198 250.907 170.725 249.542C169.989 248.859 169.35 248.25 168.856 247.754C168.344 247.239 168.038 246.896 167.919 246.727C167.271 245.801 167.031 245.182 166.942 244.846Z" fill="white" stroke="#F0F0F0" stroke-width="2"/>
<path opacity="0.25" d="M178.097 232.782C179.873 236.392 180.8 240.366 180.8 244.4C180.8 248.434 179.873 252.408 178.097 256.018C176.172 254.352 174.028 252.47 172.197 250.809C171.126 249.838 170.167 248.947 169.423 248.222C168.652 247.47 168.182 246.962 168.022 246.731L168.022 246.731L168.019 246.727C167.371 245.801 167.131 245.182 167.042 244.846C167.001 244.689 166.992 244.592 166.991 244.552L167.024 244.4L166.991 244.248C166.992 244.208 167.001 244.111 167.042 243.954C167.131 243.618 167.371 242.999 168.019 242.073L168.019 242.073L168.022 242.069C168.182 241.838 168.652 241.33 169.423 240.578C170.167 239.853 171.126 238.962 172.197 237.991C174.028 236.33 176.172 234.448 178.097 232.782Z" fill="#F0F0F0" stroke="#F0F0F0" stroke-width="2"/>
<path d="M154.425 305.8L154.425 305.8L154.4 305.8L154.375 305.8L154.375 305.8H154.375L154.374 305.8L154.368 305.8L154.344 305.801L154.247 305.803C154.16 305.804 154.031 305.806 153.866 305.807C153.534 305.81 153.056 305.81 152.469 305.802C151.295 305.785 149.697 305.732 147.995 305.591C146.289 305.449 144.502 305.22 142.941 304.856C141.348 304.484 140.126 304 139.438 303.43C139.26 303.282 138.968 302.807 138.687 301.782C138.423 300.818 138.215 299.552 138.059 298.064C137.747 295.094 137.656 291.369 137.688 287.683C137.719 284.004 137.871 280.39 138.04 277.656C138.125 276.288 138.214 275.145 138.293 274.328C138.333 273.917 138.369 273.598 138.4 273.376C138.409 273.315 138.417 273.265 138.423 273.225C138.441 273.202 138.464 273.172 138.491 273.137C138.592 273.007 138.732 272.831 138.91 272.613C139.264 272.178 139.754 271.588 140.34 270.893C141.511 269.502 143.057 267.697 144.653 265.87C146.25 264.043 147.893 262.198 149.258 260.725C149.942 259.988 150.55 259.35 151.046 258.856C151.561 258.344 151.904 258.038 152.074 257.919C152.999 257.271 153.618 257.031 153.955 256.942C154.111 256.901 154.208 256.892 154.248 256.891L154.4 256.924L154.552 256.891C154.592 256.892 154.689 256.901 154.846 256.942C155.182 257.031 155.801 257.271 156.727 257.919C156.896 258.038 157.239 258.344 157.754 258.856C158.25 259.35 158.859 259.988 159.542 260.725C160.907 262.198 162.55 264.043 164.147 265.87C165.743 267.697 167.289 269.502 168.46 270.893C169.046 271.588 169.536 272.178 169.89 272.613C170.068 272.831 170.208 273.007 170.309 273.137C170.337 273.172 170.359 273.202 170.377 273.225C170.383 273.265 170.391 273.315 170.4 273.376C170.431 273.598 170.468 273.917 170.507 274.328C170.586 275.145 170.675 276.288 170.76 277.656C170.929 280.39 171.082 284.004 171.113 287.683C171.144 291.369 171.053 295.094 170.741 298.064C170.585 299.552 170.377 300.818 170.113 301.782C169.832 302.807 169.54 303.282 169.362 303.43C168.674 304 167.452 304.484 165.859 304.856C164.298 305.22 162.511 305.449 160.805 305.591C159.103 305.732 157.505 305.785 156.331 305.802C155.745 305.81 155.266 305.81 154.934 305.807C154.769 305.806 154.64 305.804 154.553 305.803L154.456 305.801L154.432 305.8L154.426 305.8L154.425 305.8H154.425Z" fill="white" stroke="#F0F0F0" stroke-width="2"/>
<path opacity="0.25" d="M156.727 257.919L156.727 257.919L156.731 257.922C156.962 258.082 157.47 258.552 158.222 259.323C158.947 260.067 159.838 261.026 160.809 262.097C162.472 263.93 164.356 266.076 166.023 268.003C162.42 269.797 158.442 270.723 154.406 270.7L154.405 270.7C150.373 270.681 146.402 269.753 142.786 267.993C144.45 266.069 146.331 263.927 147.991 262.097C148.962 261.026 149.853 260.067 150.579 259.323C151.33 258.552 151.838 258.082 152.069 257.922L152.069 257.922L152.074 257.919C152.999 257.271 153.618 257.031 153.955 256.942C154.111 256.901 154.208 256.892 154.248 256.891L154.4 256.924L154.552 256.891C154.592 256.892 154.689 256.901 154.846 256.942C155.182 257.031 155.801 257.271 156.727 257.919ZM141.2 268.3C141.501 268.464 141.804 268.623 142.111 268.775L141.869 267.525C141.641 267.788 141.418 268.047 141.2 268.3Z" fill="#F0F0F0" stroke="#F0F0F0" stroke-width="2"/>
<path d="M403.5 320.5C405.764 320.5 407.6 318.664 407.6 316.4C407.6 314.136 405.764 312.3 403.5 312.3C401.236 312.3 399.4 314.136 399.4 316.4C399.4 318.664 401.236 320.5 403.5 320.5Z" fill="black"/>
<path d="M403.5 299.6C405.764 299.6 407.6 297.764 407.6 295.5C407.6 293.236 405.764 291.4 403.5 291.4C401.236 291.4 399.4 293.236 399.4 295.5C399.4 297.764 401.236 299.6 403.5 299.6Z" fill="black"/>
<path d="M396.6 309.8C398.864 309.8 400.7 307.964 400.7 305.7C400.7 303.436 398.864 301.6 396.6 301.6C394.336 301.6 392.5 303.436 392.5 305.7C392.5 307.964 394.336 309.8 396.6 309.8Z" fill="black"/>
<path d="M381.9 309.8C384.164 309.8 386 307.964 386 305.7C386 303.436 384.164 301.6 381.9 301.6C379.636 301.6 377.8 303.436 377.8 305.7C377.8 307.964 379.636 309.8 381.9 309.8Z" fill="black"/>
<path d="M389.2 320.5C391.464 320.5 393.3 318.664 393.3 316.4C393.3 314.136 391.464 312.3 389.2 312.3C386.936 312.3 385.1 314.136 385.1 316.4C385.1 318.664 386.936 320.5 389.2 320.5Z" fill="black"/>
<path d="M389.2 299.6C391.464 299.6 393.3 297.764 393.3 295.5C393.3 293.236 391.464 291.4 389.2 291.4C386.936 291.4 385.1 293.236 385.1 295.5C385.1 297.764 386.936 299.6 389.2 299.6Z" fill="black"/>
<path d="M374.9 299.6C377.164 299.6 379 297.764 379 295.5C379 293.236 377.164 291.4 374.9 291.4C372.636 291.4 370.8 293.236 370.8 295.5C370.8 297.764 372.636 299.6 374.9 299.6Z" fill="black"/>
<path d="M410.4 309.8C412.664 309.8 414.5 307.964 414.5 305.7C414.5 303.436 412.664 301.6 410.4 301.6C408.136 301.6 406.3 303.436 406.3 305.7C406.3 307.964 408.136 309.8 410.4 309.8Z" fill="black"/>
<path d="M425.1 309.8C427.364 309.8 429.2 307.964 429.2 305.7C429.2 303.436 427.364 301.6 425.1 301.6C422.836 301.6 421 303.436 421 305.7C421 307.964 422.836 309.8 425.1 309.8Z" fill="black"/>
<path d="M421.766 317.072C422.128 314.837 420.611 312.731 418.375 312.368C416.14 312.006 414.034 313.523 413.671 315.759C413.309 317.994 414.826 320.1 417.062 320.462C419.297 320.825 421.403 319.307 421.766 317.072Z" fill="black"/>
<path d="M421.766 296.174C422.128 293.939 420.611 291.833 418.375 291.47C416.14 291.107 414.034 292.625 413.671 294.86C413.309 297.095 414.826 299.201 417.062 299.564C419.297 299.927 421.403 298.409 421.766 296.174Z" fill="black"/>
<path d="M432.1 299.6C434.364 299.6 436.2 297.764 436.2 295.5C436.2 293.236 434.364 291.4 432.1 291.4C429.836 291.4 428 293.236 428 295.5C428 297.764 429.836 299.6 432.1 299.6Z" fill="black"/>
<g opacity="0.12">
<path d="M403.5 319.5C402.499 319.488 401.536 319.119 400.784 318.459C400.032 317.798 399.541 316.891 399.4 315.9C399.4 316.1 399.3 316.2 399.3 316.4C399.3 317.487 399.732 318.53 400.501 319.299C401.27 320.068 402.313 320.5 403.4 320.5C404.487 320.5 405.53 320.068 406.299 319.299C407.068 318.53 407.5 317.487 407.5 316.4C407.516 316.227 407.481 316.054 407.4 315.9C407.336 316.886 406.895 317.809 406.17 318.479C405.444 319.15 404.488 319.515 403.5 319.5Z" fill="white"/>
<path d="M403.5 299.6C404.04 299.605 404.576 299.503 405.075 299.299C405.575 299.095 406.029 298.793 406.411 298.411C406.793 298.029 407.095 297.575 407.299 297.075C407.503 296.575 407.605 296.04 407.6 295.5C407.616 295.327 407.581 295.154 407.5 295C407.373 295.997 406.886 296.913 406.131 297.576C405.376 298.239 404.405 298.603 403.4 298.6C402.399 298.588 401.436 298.219 400.684 297.559C399.932 296.898 399.441 295.991 399.3 295C399.3 295.2 399.2 295.3 399.2 295.5C399.284 296.594 399.769 297.618 400.563 298.375C401.357 299.132 402.403 299.569 403.5 299.6Z" fill="white"/>
<path d="M400.7 305.7C400.716 305.527 400.681 305.354 400.6 305.2C400.473 306.197 399.986 307.113 399.231 307.776C398.476 308.439 397.505 308.803 396.5 308.8C395.499 308.788 394.536 308.419 393.784 307.759C393.032 307.099 392.541 306.191 392.4 305.2C392.4 305.4 392.3 305.5 392.3 305.7C392.295 306.24 392.397 306.775 392.601 307.275C392.805 307.775 393.107 308.229 393.489 308.611C393.871 308.993 394.325 309.295 394.825 309.499C395.325 309.703 395.86 309.805 396.4 309.8C396.953 309.817 397.503 309.725 398.02 309.527C398.536 309.33 399.008 309.032 399.408 308.65C399.808 308.268 400.129 307.811 400.35 307.305C400.572 306.798 400.691 306.253 400.7 305.7Z" fill="white"/>
<path d="M385.9 305.2C385.773 306.197 385.286 307.113 384.531 307.776C383.776 308.439 382.805 308.803 381.8 308.8C380.799 308.788 379.836 308.419 379.084 307.759C378.332 307.099 377.841 306.191 377.7 305.2C377.7 305.4 377.6 305.5 377.6 305.7C377.6 306.787 378.032 307.83 378.801 308.599C379.57 309.368 380.613 309.8 381.7 309.8C382.787 309.8 383.83 309.368 384.599 308.599C385.368 307.83 385.8 306.787 385.8 305.7C386 305.5 386 305.4 385.9 305.2Z" fill="white"/>
<path d="M389.3 319.5C388.299 319.488 387.336 319.119 386.584 318.459C385.832 317.798 385.341 316.891 385.2 315.9C385.2 316.1 385.1 316.2 385.1 316.4C385.1 317.487 385.532 318.53 386.301 319.299C387.07 320.068 388.113 320.5 389.2 320.5C390.287 320.5 391.33 320.068 392.099 319.299C392.868 318.53 393.3 317.487 393.3 316.4C393.316 316.227 393.281 316.054 393.2 315.9C393.136 316.886 392.696 317.809 391.97 318.479C391.244 319.15 390.288 319.515 389.3 319.5Z" fill="white"/>
<path d="M389.3 299.6C389.84 299.605 390.375 299.503 390.875 299.299C391.375 299.095 391.829 298.793 392.211 298.411C392.593 298.029 392.895 297.575 393.099 297.075C393.303 296.575 393.405 296.04 393.4 295.5C393.416 295.327 393.381 295.154 393.3 295C393.173 295.997 392.686 296.913 391.931 297.576C391.176 298.239 390.205 298.603 389.2 298.6C388.199 298.588 387.236 298.219 386.484 297.559C385.732 296.898 385.241 295.991 385.1 295C385.1 295.2 385 295.3 385 295.5C385.068 296.6 385.549 297.633 386.346 298.393C387.143 299.153 388.198 299.584 389.3 299.6Z" fill="white"/>
<path d="M379.1 295.5C379.116 295.327 379.081 295.154 379 295C378.873 295.997 378.386 296.913 377.631 297.576C376.876 298.239 375.905 298.603 374.9 298.6C373.899 298.588 372.936 298.219 372.184 297.559C371.432 296.898 370.941 295.991 370.8 295C370.8 295.2 370.7 295.3 370.7 295.5C370.695 296.04 370.797 296.575 371.001 297.075C371.205 297.575 371.507 298.029 371.889 298.411C372.271 298.793 372.725 299.095 373.225 299.299C373.725 299.503 374.26 299.605 374.8 299.6C375.912 299.619 376.986 299.199 377.791 298.432C378.596 297.665 379.066 296.611 379.1 295.5Z" fill="white"/>
<path d="M414.5 305.2C414.373 306.197 413.886 307.113 413.131 307.776C412.376 308.439 411.405 308.803 410.4 308.8C409.399 308.788 408.436 308.419 407.684 307.759C406.932 307.099 406.441 306.191 406.3 305.2C406.3 305.4 406.2 305.5 406.2 305.7C406.2 306.787 406.632 307.83 407.401 308.599C408.17 309.368 409.213 309.8 410.3 309.8C411.387 309.8 412.43 309.368 413.199 308.599C413.968 307.83 414.4 306.787 414.4 305.7C414.6 305.5 414.5 305.4 414.5 305.2Z" fill="white"/>
<path d="M425.1 308.8C424.099 308.788 423.136 308.419 422.384 307.759C421.632 307.099 421.141 306.191 421 305.2C421 305.4 420.9 305.5 420.9 305.7C420.9 306.238 421.006 306.772 421.212 307.269C421.418 307.766 421.72 308.218 422.101 308.599C422.482 308.98 422.934 309.282 423.431 309.488C423.928 309.694 424.462 309.8 425 309.8C425.538 309.8 426.072 309.694 426.569 309.488C427.066 309.282 427.518 308.98 427.899 308.599C428.28 308.218 428.582 307.766 428.788 307.269C428.994 306.772 429.1 306.238 429.1 305.7C429.116 305.527 429.081 305.354 429 305.2C428.985 305.694 428.871 306.18 428.666 306.629C428.461 307.079 428.168 307.483 427.805 307.818C427.442 308.153 427.016 308.412 426.551 308.581C426.087 308.75 425.594 308.824 425.1 308.8Z" fill="white"/>
<path d="M417.8 319.5C416.799 319.488 415.836 319.119 415.084 318.459C414.332 317.798 413.841 316.891 413.7 315.9C413.7 316.1 413.6 316.2 413.6 316.4C413.6 317.487 414.032 318.53 414.801 319.299C415.57 320.068 416.613 320.5 417.7 320.5C418.787 320.5 419.83 320.068 420.599 319.299C421.368 318.53 421.8 317.487 421.8 316.4C421.816 316.227 421.781 316.054 421.7 315.9C421.636 316.886 421.196 317.809 420.47 318.479C419.744 319.15 418.788 319.515 417.8 319.5Z" fill="white"/>
<path d="M417.8 299.6C418.34 299.605 418.875 299.503 419.375 299.299C419.875 299.095 420.329 298.793 420.711 298.411C421.093 298.029 421.395 297.575 421.599 297.075C421.803 296.575 421.905 296.04 421.9 295.5C421.916 295.327 421.881 295.154 421.8 295C421.673 295.997 421.186 296.913 420.431 297.576C419.676 298.239 418.705 298.603 417.7 298.6C416.699 298.588 415.736 298.219 414.984 297.559C414.232 296.898 413.741 295.991 413.6 295C413.6 295.2 413.5 295.3 413.5 295.5C413.568 296.6 414.049 297.633 414.846 298.393C415.643 299.153 416.698 299.584 417.8 299.6Z" fill="white"/>
<path d="M432.1 298.6C431.099 298.588 430.136 298.219 429.384 297.559C428.632 296.898 428.141 295.991 428 295C428 295.2 427.9 295.3 427.9 295.5C427.9 296.587 428.332 297.63 429.101 298.399C429.87 299.168 430.913 299.6 432 299.6C433.087 299.6 434.13 299.168 434.899 298.399C435.668 297.63 436.1 296.587 436.1 295.5C436.116 295.327 436.081 295.154 436 295C435.936 295.986 435.495 296.909 434.77 297.579C434.044 298.25 433.088 298.615 432.1 298.6Z" fill="white"/>
</g>
<path d="M437.1 421H369.2C366.4 421 364.6 421.6 364.6 418.8C364.6 417.474 365.127 416.202 366.064 415.264C367.002 414.327 368.274 413.8 369.6 413.8H437.5C438.826 413.8 440.098 414.327 441.035 415.264C441.973 416.202 442.5 417.474 442.5 418.8C442.6 421.5 439.9 421 437.1 421Z" fill="white"/>
<path d="M408.8 418.8H372.3C372.061 418.8 371.832 418.705 371.664 418.536C371.495 418.368 371.4 418.139 371.4 417.9C371.4 417.37 371.611 416.861 371.986 416.486C372.361 416.111 372.87 415.9 373.4 415.9H407.6C408.13 415.9 408.639 416.111 409.014 416.486C409.389 416.861 409.6 417.37 409.6 417.9C409.62 418.014 409.613 418.131 409.582 418.242C409.55 418.354 409.494 418.456 409.417 418.543C409.34 418.629 409.245 418.697 409.138 418.742C409.031 418.786 408.916 418.806 408.8 418.8Z" fill="#E6E6E6"/>
<path d="M431 419.6H426.8C426.353 419.587 425.928 419.404 425.612 419.088C425.296 418.772 425.113 418.347 425.1 417.9C425.1 417.532 425.172 417.168 425.313 416.828C425.454 416.489 425.66 416.18 425.92 415.92C426.18 415.66 426.489 415.454 426.828 415.313C427.168 415.172 427.532 415.1 427.9 415.1H429.8C430.168 415.1 430.532 415.172 430.871 415.313C431.211 415.454 431.52 415.66 431.78 415.92C432.04 416.18 432.246 416.489 432.387 416.828C432.528 417.168 432.6 417.532 432.6 417.9C432.63 418.122 432.611 418.348 432.543 418.561C432.475 418.774 432.36 418.969 432.206 419.132C432.053 419.295 431.865 419.422 431.656 419.503C431.447 419.584 431.223 419.617 431 419.6Z" fill="#E6E6E6"/>
<path d="M530.9 124.3C530.9 123.796 530.7 123.313 530.344 122.956C529.987 122.6 529.504 122.4 529 122.4H277.9C277.396 122.4 276.913 122.6 276.556 122.956C276.2 123.313 276 123.796 276 124.3V253.5C276.005 257.636 277.651 261.601 280.575 264.525C283.499 267.449 287.464 269.095 291.6 269.1H515.4C519.536 269.095 523.501 267.449 526.425 264.525C529.349 261.601 530.995 257.636 531 253.5V130.4L530.9 124.3Z" fill="#00A4E8"/>
<g opacity="0.12">
<path d="M276 253.5C276.005 257.636 277.651 261.601 280.575 264.525C283.499 267.449 287.464 269.095 291.6 269.1H515.4C519.536 269.095 523.501 267.449 526.425 264.525C529.349 261.601 530.995 257.636 531 253.5V147H276V253.5Z" fill="#00A4E8"/>
</g>
<path d="M710.4 271C705.198 271 700.113 269.458 695.788 266.568C691.463 263.678 688.092 259.57 686.102 254.765C684.111 249.959 683.59 244.671 684.605 239.569C685.62 234.467 688.125 229.781 691.803 226.103C695.481 222.425 700.167 219.92 705.269 218.905C710.371 217.891 715.659 218.411 720.464 220.402C725.27 222.393 729.378 225.763 732.267 230.089C735.157 234.414 736.7 239.498 736.7 244.7C736.692 251.673 733.919 258.358 728.988 263.288C724.058 268.219 717.373 270.992 710.4 271Z" fill="#F0F0F0"/>
<path d="M710.4 219.5C715.394 219.51 720.273 221 724.42 223.783C728.566 226.566 731.795 230.516 733.697 235.133C735.599 239.751 736.089 244.829 735.105 249.725C734.121 254.621 731.707 259.115 728.169 262.64C724.631 266.164 720.127 268.56 715.227 269.524C710.327 270.489 705.251 269.979 700.641 268.059C696.031 266.139 692.094 262.894 689.327 258.737C686.561 254.579 685.09 249.694 685.1 244.7C685.134 238.01 687.814 231.605 692.554 226.884C697.294 222.162 703.71 219.508 710.4 219.5ZM710.4 217.5C705 217.5 699.722 219.101 695.233 222.101C690.743 225.101 687.244 229.364 685.178 234.353C683.112 239.341 682.571 244.83 683.624 250.126C684.678 255.422 687.278 260.286 691.096 264.104C694.914 267.922 699.778 270.522 705.074 271.575C710.37 272.629 715.859 272.088 720.847 270.022C725.836 267.956 730.099 264.457 733.099 259.967C736.099 255.478 737.7 250.199 737.7 244.8C737.689 237.563 734.81 230.625 729.692 225.508C724.575 220.39 717.637 217.511 710.4 217.5Z" fill="#F0F0F0"/>
<path d="M710.4 225.9C706.662 225.9 703.008 227.008 699.9 229.085C696.792 231.162 694.369 234.114 692.939 237.567C691.508 241.021 691.134 244.821 691.863 248.487C692.592 252.153 694.392 255.521 697.036 258.164C699.679 260.808 703.046 262.608 706.713 263.337C710.379 264.066 714.179 263.692 717.633 262.261C721.086 260.831 724.038 258.408 726.115 255.3C728.191 252.192 729.3 248.538 729.3 244.8C729.287 239.791 727.291 234.992 723.75 231.45C720.208 227.909 715.408 225.913 710.4 225.9ZM710.4 260.8C707.235 260.8 704.142 259.862 701.511 258.104C698.88 256.345 696.829 253.847 695.618 250.923C694.407 247.999 694.09 244.782 694.707 241.679C695.325 238.575 696.849 235.724 699.086 233.486C701.324 231.249 704.175 229.725 707.278 229.107C710.382 228.49 713.599 228.807 716.523 230.018C719.446 231.229 721.945 233.28 723.703 235.911C725.461 238.542 726.4 241.636 726.4 244.8C726.4 249.043 724.714 253.113 721.714 256.114C718.713 259.114 714.643 260.8 710.4 260.8Z" fill="#D42F2F"/>
<path d="M652.8 328.6C647.598 328.6 642.513 327.058 638.188 324.168C633.863 321.278 630.493 317.17 628.502 312.365C626.511 307.559 625.991 302.271 627.005 297.169C628.02 292.067 630.525 287.381 634.203 283.703C637.881 280.025 642.567 277.52 647.669 276.505C652.771 275.491 658.059 276.011 662.865 278.002C667.67 279.993 671.778 283.363 674.668 287.688C677.558 292.014 679.1 297.098 679.1 302.3C679.092 309.273 676.319 315.958 671.388 320.888C666.458 325.819 659.773 328.592 652.8 328.6Z" fill="#F0F0F0"/>
<path d="M652.8 277.1C657.804 277.1 662.695 278.584 666.856 281.364C671.016 284.144 674.259 288.095 676.174 292.718C678.089 297.341 678.59 302.428 677.614 307.336C676.638 312.244 674.228 316.752 670.69 320.29C667.151 323.828 662.643 326.238 657.736 327.214C652.828 328.19 647.741 327.689 643.118 325.774C638.495 323.859 634.544 320.616 631.764 316.456C628.984 312.295 627.5 307.404 627.5 302.4C627.508 295.692 630.176 289.262 634.919 284.519C639.662 279.776 646.092 277.108 652.8 277.1ZM652.8 275.1C647.4 275.1 642.122 276.701 637.633 279.701C633.143 282.701 629.644 286.964 627.578 291.953C625.512 296.941 624.971 302.43 626.024 307.726C627.078 313.022 629.678 317.886 633.496 321.704C637.314 325.522 642.178 328.122 647.474 329.175C652.77 330.229 658.259 329.688 663.247 327.622C668.236 325.556 672.499 322.057 675.499 317.567C678.499 313.078 680.1 307.799 680.1 302.4C680.089 295.163 677.21 288.225 672.092 283.108C666.975 277.99 660.037 275.111 652.8 275.1Z" fill="#E6E6E6"/>
<path d="M667.2 290L665.2 288L652.8 300.4L640.5 288L638.5 290L650.8 302.4L638.5 314.7L640.5 316.7L652.8 304.4L665.2 316.7L667.2 314.7L654.8 302.4L667.2 290Z" fill="#D42F2F"/>
<path d="M595.3 271C590.098 271 585.013 269.458 580.688 266.568C576.363 263.678 572.993 259.57 571.002 254.765C569.011 249.959 568.491 244.671 569.505 239.569C570.52 234.467 573.025 229.781 576.703 226.103C580.381 222.425 585.067 219.92 590.169 218.905C595.271 217.891 600.559 218.411 605.365 220.402C610.17 222.393 614.278 225.763 617.168 230.089C620.058 234.414 621.6 239.498 621.6 244.7C621.592 251.673 618.819 258.358 613.888 263.288C608.958 268.219 602.273 270.992 595.3 271Z" fill="#F0F0F0"/>
<path d="M595.2 219.5C600.194 219.51 605.073 221 609.22 223.783C613.366 226.566 616.595 230.516 618.497 235.133C620.399 239.751 620.889 244.829 619.905 249.725C618.921 254.621 616.507 259.115 612.969 262.64C609.431 266.164 604.927 268.56 600.027 269.524C595.127 270.489 590.051 269.979 585.441 268.059C580.831 266.139 576.894 262.894 574.128 258.737C571.361 254.579 569.89 249.694 569.9 244.7C569.934 238.01 572.614 231.605 577.354 226.884C582.094 222.162 588.51 219.508 595.2 219.5ZM595.2 217.5C589.8 217.5 584.522 219.101 580.033 222.101C575.543 225.101 572.044 229.364 569.978 234.353C567.912 239.341 567.371 244.83 568.424 250.126C569.478 255.422 572.078 260.286 575.896 264.104C579.714 267.922 584.578 270.522 589.874 271.575C595.17 272.629 600.659 272.088 605.647 270.022C610.636 267.956 614.899 264.457 617.899 259.967C620.899 255.478 622.5 250.199 622.5 244.8C622.489 237.563 619.61 230.625 614.492 225.508C609.375 220.39 602.437 217.511 595.2 217.5Z" fill="#E6E6E6"/>
<path d="M606.8 230.4H581V259H609.6V230.4H606.8ZM606.8 256.3H583.8V233.3H606.8V256.3Z" fill="#D42F2F"/>
<path d="M652.8 213.5C647.598 213.5 642.513 211.958 638.188 209.068C633.863 206.178 630.493 202.07 628.502 197.265C626.511 192.459 625.991 187.171 627.005 182.069C628.02 176.967 630.525 172.281 634.203 168.603C637.881 164.925 642.567 162.42 647.669 161.405C652.771 160.391 658.059 160.911 662.865 162.902C667.67 164.893 671.778 168.263 674.668 172.589C677.558 176.914 679.1 181.998 679.1 187.2C679.092 194.173 676.319 200.858 671.388 205.788C666.458 210.719 659.773 213.492 652.8 213.5Z" fill="#F0F0F0"/>
<path d="M652.8 162C657.804 162 662.695 163.484 666.856 166.264C671.016 169.044 674.259 172.995 676.174 177.618C678.089 182.241 678.59 187.328 677.614 192.236C676.638 197.143 674.228 201.652 670.69 205.19C667.151 208.728 662.643 211.138 657.736 212.114C652.828 213.09 647.741 212.589 643.118 210.674C638.495 208.759 634.544 205.516 631.764 201.356C628.984 197.195 627.5 192.304 627.5 187.3C627.508 180.592 630.176 174.162 634.919 169.419C639.662 164.676 646.092 162.008 652.8 162ZM652.8 160C647.4 160 642.122 161.601 637.633 164.601C633.143 167.601 629.644 171.864 627.578 176.853C625.512 181.841 624.971 187.33 626.024 192.626C627.078 197.922 629.678 202.786 633.496 206.604C637.314 210.422 642.178 213.022 647.474 214.075C652.77 215.129 658.259 214.588 663.247 212.522C668.236 210.456 672.499 206.957 675.499 202.467C678.499 197.978 680.1 192.699 680.1 187.3C680.089 180.063 677.21 173.125 672.092 168.008C666.975 162.89 660.037 160.011 652.8 160Z" fill="#F0F0F0"/>
<path d="M668.8 195.2L652.8 167.6L636.8 195.2L635.2 198H670.4L668.8 195.2ZM652.8 195.2H640.1L652.8 173.3L665.5 195.2H652.8Z" fill="#D42F2F"/>
<path d="M403.5 382.2C414.656 382.2 423.7 373.156 423.7 362C423.7 350.844 414.656 341.8 403.5 341.8C392.344 341.8 383.3 350.844 383.3 362C383.3 373.156 392.344 382.2 403.5 382.2Z" fill="#00A4E8" stroke="white" stroke-width="2" stroke-miterlimit="10"/>
<path d="M404.6 368.6V355.8C404.58 355.622 404.596 355.441 404.648 355.269C404.699 355.097 404.785 354.938 404.9 354.8C404.975 354.69 405.086 354.61 405.214 354.574C405.342 354.537 405.478 354.546 405.6 354.6C406.2 354.8 406.5 355.3 406.5 356.3V363.2C407.15 363.533 407.87 363.704 408.6 363.7C409.172 363.703 409.731 363.528 410.2 363.2C411.2 362.5 411.7 361.3 411.7 359.5C411.821 357.97 411.396 356.446 410.5 355.2C409.405 353.966 407.984 353.065 406.4 352.6C405.1 352.2 403.9 351.8 402.8 351.5C401.7 351.2 400.8 351 399.9 350.8V363V365.7V367.4V369.9V371.4L404.6 372.9V369.3V368.6Z" fill="#F2F2F2"/>
<path d="M399.5 367.6L397.8 368.2L396.9 368.6L395.3 368.9L393.8 368.7C393.5 368.5 393.4 368.3 393.6 368.1C393.8 367.9 393.8 368 393.9 367.9C394 367.8 394.2 367.8 394.3 367.7L395.4 367.3L399.5 365.8V363.1L397.8 363.6L392.3 365.6L391.3 366C389.8 366.6 389.1 367.2 389.1 367.8C389.2 368.6 390.1 369.3 391.8 369.7C393.202 370.071 394.65 370.239 396.1 370.2C397.206 370.191 398.31 370.09 399.4 369.9V367.6H399.5Z" fill="#F2F2F2"/>
<path d="M415.3 365.3C414.489 365.017 413.651 364.816 412.8 364.7C411.974 364.567 411.134 364.533 410.3 364.6C409.362 364.651 408.428 364.751 407.5 364.9C406.611 365.089 405.741 365.356 404.9 365.7V368.5L408.8 367.1L410.4 366.6L411.5 366.3H412.9C413.2 366.4 413.5 366.5 413.6 366.7C413.7 366.9 413.4 367.1 412.8 367.3L411.4 367.8L404.9 370.2V372.9L408.4 371.6L414.8 369.3L415.5 368.9C417 368.4 417.7 367.7 417.7 367C417.7 366.3 416.9 365.8 415.3 365.3Z" fill="#F2F2F2"/>
<path d="M697.7 109.9C697.705 109.513 697.606 109.133 697.412 108.798C697.218 108.464 696.938 108.188 696.6 108C692.1 105.1 673.2 94.4 645.1 94.4C618.2 94.4 604 100.3 600 102.4C599.633 102.587 599.325 102.874 599.113 103.228C598.901 103.582 598.792 103.988 598.8 104.4C598.8 104.4 608.6 101.5 646.3 101.5C684 101.5 697.7 109.9 697.7 109.9Z" fill="#F0F0F0"/>
<path d="M697.6 116.8V109.9C697.6 109.9 683.9 101.5 646.2 101.5C608.5 101.5 598.7 104.4 598.7 104.4V115.4C606.4 114.1 619.9 112.8 642.8 112.8C671.3 112.9 688.7 115.2 697.6 116.8Z" fill="#F0F0F0"/>
<path d="M109.3 109.9C109.295 109.513 109.394 109.133 109.588 108.798C109.781 108.464 110.062 108.188 110.4 108C114.9 105.1 133.8 94.4 161.9 94.4C188.8 94.4 203 100.3 207 102.4C207.367 102.587 207.675 102.874 207.887 103.228C208.099 103.582 208.208 103.988 208.2 104.4C208.2 104.4 198.4 101.5 160.7 101.5C123 101.5 109.3 109.9 109.3 109.9Z" fill="#F0F0F0"/>
<path d="M109.4 116.8V109.9C109.4 109.9 123.1 101.5 160.8 101.5C198.5 101.5 208.3 104.4 208.3 104.4V115.4C200.6 114.1 187.1 112.8 164.2 112.8C135.7 112.9 118.3 115.2 109.4 116.8Z" fill="#F0F0F0"/>
<path d="M697.7 90.8C697.7 90.8 665 87.6 647.1 87.6C629.2 87.6 598.7 90 598.7 90C598.7 90 601.8 45.3 603.5 38C605.2 30.7 611.2 16.7 620.4 10.1C629.6 3.5 632.3 0 643.1 0C653.9 0 668.5 6.4 677.7 21.4C686.9 36.4 697.7 90.8 697.7 90.8Z" fill="white"/>
<path d="M599.2 83.2C599.2 83.2 625.3 78.8 648.2 78.8C671.1 78.8 696.1 83.2 696.1 83.2C697.1 87.9 697.7 90.8 697.7 90.8C697.7 90.8 665 87.6 647.1 87.6C629.2 87.6 598.7 90 598.7 90C598.7 90 598.9 87.3 599.2 83.2Z" fill="#F0F0F0"/>
<g opacity="0.08">
<path d="M649.2 65.7L646 68.3C644.787 69.4923 644.072 71.1007 644 72.8H653.8V70.2H647.5C648.057 69.4245 648.773 68.7767 649.6 68.3C650.592 67.7273 651.501 67.0207 652.3 66.2C653.141 65.308 653.607 64.1262 653.6 62.9C653.623 62.2809 653.51 61.6643 653.268 61.094C653.026 60.5236 652.661 60.0136 652.2 59.6C651.223 58.7785 649.975 58.3507 648.7 58.4C645.6 58.4 644 60.1 644 63.4H646.7C646.7 61.6 647.4 60.7 648.8 60.7C649.079 60.6707 649.36 60.7057 649.623 60.8024C649.886 60.8992 650.123 61.055 650.317 61.2579C650.51 61.4608 650.654 61.7053 650.738 61.9727C650.821 62.2401 650.843 62.5231 650.8 62.8C651 63.9 650.4 64.8 649.2 65.7Z" fill="#D42F2F"/>
<path d="M631.6 67.2H634.6C636.1 67.2 636.9 67.8 637 69.1C637.1 70.4 637.2 71.6 637.3 72.9H640.6V72.5C640.1 72.3 639.9 71.8 639.9 71C639.895 70.7299 639.928 70.4605 640 70.2V69.5C640.077 68.8043 639.948 68.1012 639.628 67.4786C639.307 66.8561 638.811 66.3418 638.2 66C638.897 65.7659 639.495 65.3021 639.894 64.6845C640.294 64.0669 640.472 63.3321 640.4 62.6C640.44 62.0323 640.343 61.4632 640.117 60.9409C639.891 60.4187 639.542 59.9587 639.1 59.6C638.191 58.8863 637.053 58.5305 635.9 58.6H628.6V72.9H631.6V67.2ZM631.6 61H635.3C636.7 61 637.4 61.6 637.4 62.9C637.4 64.2 636.6 64.8 635.1 64.8H631.6V61Z" fill="#D42F2F"/>
</g>
<path d="M109.3 90.8C109.3 90.8 142 87.6 159.9 87.6C177.8 87.6 208.2 90 208.2 90C208.2 90 205.1 45.3 203.4 38C201.7 30.7 195.7 16.7 186.5 10.1C177.3 3.5 174.7 0 163.9 0C153.1 0 138.5 6.4 129.3 21.4C120.1 36.4 109.3 90.8 109.3 90.8Z" fill="white"/>
<path d="M207.8 83.2C207.8 83.2 181.7 78.8 158.8 78.8C135.9 78.8 110.9 83.2 110.9 83.2C109.9 87.9 109.3 90.8 109.3 90.8C109.3 90.8 142 87.6 159.9 87.6C177.8 87.6 208.2 90 208.2 90C208.2 90 208.1 87.3 207.8 83.2Z" fill="#F0F0F0"/>
<g opacity="0.08">
<path d="M173.8 65.7L170.6 68.3C169.387 69.4923 168.672 71.1007 168.6 72.8H178.4V70.2H172.2C172.757 69.4245 173.473 68.7767 174.3 68.3C175.292 67.7273 176.201 67.0207 177 66.2C177.841 65.308 178.307 64.1262 178.3 62.9C178.323 62.2809 178.21 61.6643 177.968 61.094C177.726 60.5236 177.361 60.0136 176.9 59.6C175.923 58.7785 174.675 58.3507 173.4 58.4C170.3 58.4 168.7 60.1 168.7 63.4H171.4C171.4 61.6 172.1 60.7 173.5 60.7C173.779 60.6707 174.06 60.7057 174.323 60.8024C174.586 60.8992 174.823 61.055 175.017 61.2579C175.21 61.4608 175.354 61.7053 175.438 61.9727C175.522 62.2401 175.543 62.5231 175.5 62.8C175.6 63.9 175 64.8 173.8 65.7Z" fill="#D42F2F"/>
<path d="M165.3 70.2H158.3V58.5H155.2V72.8H165.3V70.2Z" fill="#D42F2F"/>
</g>
<path d="M548.1 134.6C548.027 135.638 547.564 136.61 546.803 137.319C546.042 138.029 545.04 138.423 544 138.423C542.96 138.423 541.958 138.029 541.197 137.319C540.436 136.61 539.973 135.638 539.9 134.6C539.901 134.076 540.011 133.557 540.221 133.077C540.432 132.596 540.739 132.164 541.123 131.808C541.508 131.452 541.962 131.178 542.457 131.005C542.952 130.831 543.477 130.762 544 130.8C544.525 130.752 545.054 130.815 545.553 130.985C546.052 131.156 546.51 131.429 546.896 131.787C547.283 132.145 547.59 132.581 547.797 133.065C548.005 133.55 548.108 134.073 548.1 134.6ZM541.4 134.6C541.37 134.954 541.415 135.31 541.534 135.644C541.652 135.979 541.841 136.284 542.087 136.54C542.334 136.796 542.632 136.996 542.961 137.127C543.291 137.258 543.645 137.317 544 137.3C544.352 137.309 544.703 137.245 545.029 137.111C545.355 136.977 545.65 136.777 545.895 136.523C546.139 136.269 546.328 135.967 546.45 135.636C546.571 135.305 546.622 134.952 546.6 134.6C546.6 133.91 546.326 133.249 545.839 132.762C545.351 132.274 544.69 132 544 132C543.31 132 542.649 132.274 542.161 132.762C541.674 133.249 541.4 133.91 541.4 134.6Z" fill="#D42F2F"/>
<path d="M549.4 131H553.2C555.6 131 556.1 132.3 556.1 133.2C556.1 134.1 555.6 135.4 553.2 135.4H550.9V138.2H549.4V131ZM550.9 134.4H553.1C553.8 134.4 554.6 134.1 554.6 133.2C554.6 132.3 553.9 132 553.1 132H550.9V134.4Z" fill="#D42F2F"/>
<path d="M556.6 131H563.5V132.1H560.8V138.2H559.3V132H556.6V131Z" fill="#D42F2F"/>
<path d="M564.6 131H566.1V138.2H564.6V131Z" fill="#D42F2F"/>
<path d="M575.6 134.6C575.527 135.638 575.064 136.61 574.303 137.319C573.542 138.029 572.54 138.423 571.5 138.423C570.46 138.423 569.458 138.029 568.697 137.319C567.936 136.61 567.473 135.638 567.4 134.6C567.401 134.076 567.511 133.557 567.721 133.077C567.932 132.596 568.239 132.164 568.623 131.808C569.008 131.452 569.462 131.178 569.957 131.005C570.452 130.831 570.977 130.762 571.5 130.8C572.025 130.752 572.554 130.815 573.053 130.985C573.552 131.156 574.01 131.429 574.396 131.787C574.783 132.145 575.09 132.581 575.297 133.065C575.505 133.55 575.608 134.073 575.6 134.6ZM568.9 134.6C568.87 134.954 568.915 135.31 569.034 135.644C569.152 135.979 569.341 136.284 569.587 136.54C569.834 136.796 570.132 136.996 570.461 137.127C570.791 137.258 571.145 137.317 571.5 137.3C571.852 137.309 572.203 137.245 572.529 137.111C572.855 136.977 573.15 136.777 573.395 136.523C573.639 136.269 573.828 135.967 573.95 135.636C574.071 135.305 574.122 134.952 574.1 134.6C574.1 133.91 573.826 133.249 573.339 132.762C572.851 132.274 572.19 132 571.5 132C570.81 132 570.149 132.274 569.661 132.762C569.174 133.249 568.9 133.91 568.9 134.6Z" fill="#D42F2F"/>
<path d="M577 131H578.6L582.5 136.3V131H583.9V138.2H582.3L578.4 132.9V138.2H577V131Z" fill="#D42F2F"/>
<path d="M586.7 135.8C586.7 136.9 587.7 137.3 588.9 137.3C590.1 137.3 590.7 136.7 590.7 136.2C590.707 135.992 590.641 135.788 590.513 135.623C590.385 135.459 590.204 135.344 590 135.3C589.4 135.1 588.6 135 587.4 134.7C585.9 134.4 585.5 133.6 585.5 132.9C585.5 131.4 587.1 130.8 588.6 130.8C590.4 130.8 591.9 131.6 591.9 133.1H590.4C590.3 132.2 589.6 131.8 588.6 131.8C587.9 131.8 587 132 587 132.7C587 133.2 587.4 133.5 588 133.6C588.845 133.75 589.679 133.95 590.5 134.2C590.939 134.277 591.342 134.493 591.649 134.818C591.955 135.142 592.148 135.557 592.2 136C592.2 137.6 590.5 138.3 588.8 138.3C586.8 138.3 585.3 137.5 585.2 135.7H586.7V135.8Z" fill="#D42F2F"/>
<path d="M222.7 135.8C222.7 136.9 223.7 137.3 224.9 137.3C226.1 137.3 226.7 136.7 226.7 136.2C226.707 135.992 226.641 135.788 226.513 135.623C226.385 135.459 226.204 135.344 226 135.3C225.4 135.1 224.6 135 223.4 134.7C221.9 134.4 221.5 133.6 221.5 132.9C221.5 131.4 223.1 130.8 224.6 130.8C226.4 130.8 227.9 131.6 227.9 133.1H226.4C226.3 132.2 225.6 131.8 224.6 131.8C223.9 131.8 223 132 223 132.7C223 133.2 223.4 133.5 224 133.6C224.845 133.75 225.679 133.95 226.5 134.2C226.94 134.277 227.342 134.493 227.649 134.818C227.955 135.142 228.148 135.557 228.2 136C228.2 137.6 226.5 138.3 224.8 138.3C222.8 138.3 221.3 137.5 221.2 135.7H222.7V135.8Z" fill="#D42F2F"/>
<path d="M229.4 131H230.9V133.9H234.8V131H236.3V138.2H234.8V135H230.9V138.2H229.4V131Z" fill="#D42F2F"/>
<path d="M240.4 131H242L245.3 138.2H243.7L242.9 136.3H239.5L238.7 138.2H237.2L240.4 131ZM239.9 135.3H242.5L241.2 132.2L239.9 135.3Z" fill="#D42F2F"/>
<path d="M246.1 131H250.2C252.1 131 253 131.7 253 132.9C253.016 133.317 252.885 133.726 252.629 134.055C252.372 134.385 252.008 134.613 251.6 134.7C251.968 134.736 252.308 134.911 252.55 135.19C252.792 135.469 252.917 135.831 252.9 136.2C252.9 137 253 137.8 253.4 138.1H251.8C251.63 137.76 251.561 137.378 251.6 137C251.6 135.7 251.3 135.1 249.9 135.1H247.7V138.1H246.2V131H246.1ZM247.6 134.2H250.1C251.1 134.2 251.6 133.8 251.6 133.1C251.6 132.2 250.9 132 250.1 132H247.7V134.2H247.6Z" fill="#D42F2F"/>
<path d="M254.6 131H260.8V132.1H256.1V134H260.4V135H256.1V137.1H260.8V138.2H254.6V131Z" fill="#D42F2F"/>
<path d="M136.73 450.913C139.947 445.123 142.862 439.047 145.53 432.759C136.331 427.012 126.93 422.26 117.341 418.477C129.52 427.519 135.044 439.749 136.73 450.913Z" fill="white"/>
<path d="M91.5413 389.656L93.1561 393.802L90.1914 395.791L93.0002 399.779L98.1104 396.927L94.9323 391.302L101.277 389.045L105.761 385.219L106.195 391.097L109.051 397.196L102.816 398.892L104.382 404.53L109.193 403.723L108.523 400.217L112.606 398.45L113.888 402.52L110.261 404.447L111.496 409.082L115.755 408.824L116.845 403.416L127.526 402.461C117.799 406.215 114.992 413.851 113.786 416.047C100.878 407.025 76.6117 399.465 57.5291 396.785C64.4155 397.163 71.3836 397.865 78.4961 399.152C80.5831 393.271 80.8472 388.433 78.1975 381.868L85.0288 390.134L81.9508 394.712L84.7618 397.921L88.926 395.54L87.7449 391.606L91.5413 389.656Z" fill="white"/>
<path d="M112.391 458.467C108.624 456.059 106.018 453.046 109.881 446.664C110.853 448.422 111.826 450.18 112.798 451.938C110.027 453.258 110.942 455.776 112.391 458.467Z" fill="white"/>
<path fill-rule="evenodd" clip-rule="evenodd" d="M118.127 473.369C121.719 475.706 125.374 476.392 129.125 474.568C133.158 486.673 129.944 493.298 117.849 493.212C120.661 483.489 108.168 471.031 87.8542 462.826C106.784 466.101 113.659 475.505 118.127 473.369ZM124.865 481.877C123.336 480.209 121.805 478.542 120.276 476.874C121.587 477.271 122.827 477.392 123.965 477.188C124.265 478.751 124.565 480.314 124.865 481.877ZM118.89 435.51C118.719 431.961 118.411 431.581 117.475 428.504C135.516 448.016 132.609 460.993 129.656 471.325C129.568 471.342 129.481 471.357 129.395 471.372C127.251 468.287 128.861 460.071 126.976 455.238C128.043 460.765 125.851 470.61 123.116 471.074C118.788 469.66 116.764 465.753 117.208 462.53C118.547 452.119 114.504 441.403 100.486 433.012C98.8039 433.154 95.5371 434.592 93.8058 437.271C99.6532 434.799 104.116 439.171 104.385 441.996C99.9561 444.76 98.9024 449.324 100.142 454.441C85.5823 447.588 66.1923 453.082 54.7415 466.905C53.7798 463.903 52.96 460.832 52.2723 457.701C50.9837 451.835 50.153 445.756 49.7139 439.524C60.4102 434.034 78.7841 437.824 86.9314 441.171C81.9353 433.199 64.4176 426.101 49.3329 428.447C49.3294 422.435 49.6388 416.318 50.2057 410.144C59.5233 409.841 76.108 414.836 84.4958 420.146C81.9886 416.432 77.0818 411.473 73.9493 408.792C96.8256 414.937 110.865 425.065 118.89 435.51Z" fill="white"/>
<path fill-rule="evenodd" clip-rule="evenodd" d="M60.4257 469.994L109.421 483.123L105.993 495.915L56.9979 482.787L60.4257 469.994Z" fill="white"/>
<path d="M68.9122 481.825L67.3652 481.41L67.4455 479.575C67.4602 479.22 67.514 478.801 67.5831 478.35L67.5765 478.348C67.441 478.745 67.2821 479.091 67.1027 479.432L66.2218 481.104L64.7772 480.717L64.9059 475.798L66.2546 476.16L66.173 478.163C66.1626 478.476 66.1134 478.851 66.047 479.208L66.054 479.21C66.1849 478.885 66.3194 478.577 66.4892 478.27L67.4873 476.49L68.7674 476.833L68.7395 478.799C68.7366 479.084 68.7149 479.468 68.6531 479.862L68.6597 479.864C68.821 479.482 68.978 479.142 69.1328 478.839L69.9931 477.161L71.2733 477.504L68.9122 481.825ZM100.693 490.34L100.344 488.552C100.263 488.141 100.198 487.727 100.164 487.388C100.118 487.669 100.082 487.829 100.002 488.13L99.4953 490.019L98.2697 489.691L99.508 485.07L101.138 485.506L101.44 487.062C101.528 487.526 101.621 487.999 101.68 488.411C101.73 488.087 101.812 487.727 101.889 487.439L102.322 485.824L103.548 486.152L102.309 490.773L100.693 490.34ZM94.504 488.682L95.7422 484.061L98.4472 484.786L98.1573 485.867L96.7259 485.484L96.5517 486.134L97.9074 486.497L97.6286 487.538L96.2729 487.175L96.0728 487.921L97.5042 488.305L97.2089 489.407L94.504 488.682ZM92.176 486.033C92.1281 486.02 91.9228 485.965 91.8459 485.952L91.6202 486.794C91.7001 486.823 91.8355 486.866 91.9449 486.896C92.2874 486.987 92.5608 486.899 92.6378 486.612C92.702 486.372 92.573 486.14 92.176 486.033ZM92.6763 484.303C92.5326 484.265 92.4213 484.242 92.31 484.22L92.1009 485C92.1742 485.027 92.2634 485.051 92.3725 485.08C92.7699 485.187 93.0008 485.065 93.0724 484.798C93.1366 484.558 92.9779 484.384 92.6763 484.303ZM91.6595 487.934C91.3786 487.859 90.8481 487.702 90.0678 487.493L91.3043 482.879C91.7767 482.976 92.5818 483.177 93.1568 483.331C94.1565 483.599 94.6974 484.155 94.4809 484.963C94.3708 485.374 94.0322 485.679 93.6266 485.768L93.621 485.789C93.9813 486.032 94.1367 486.522 94.0175 486.967C93.7937 487.802 92.981 488.289 91.6595 487.934ZM87.8315 484.392C87.8208 484.103 87.805 483.835 87.8338 483.534L87.8202 483.53C87.7078 483.786 87.5359 484.071 87.3593 484.346L87.0667 484.811L87.8606 485.023L87.8315 484.392ZM87.9524 486.927L87.9146 486.109L86.4902 485.728L86.0554 486.418L84.796 486.081L87.5408 481.863L88.999 482.254L89.342 487.299L87.9524 486.927ZM82.79 485.543L83.2779 483.722L81.8948 483.352L81.4069 485.173L80.1334 484.831L81.3716 480.21L82.6452 480.551L82.1939 482.236L83.577 482.606L84.0282 480.922L85.3018 481.263L84.0635 485.885L82.79 485.543ZM76.6965 483.911L77.9347 479.289L79.2083 479.631L78.2745 483.115L79.5481 483.457L79.2436 484.593L76.6965 483.911ZM73.26 482.99L74.4983 478.368L75.7714 478.71L74.8376 482.194L76.1112 482.536L75.8067 483.672L73.26 482.99ZM70.85 482.344L72.1232 482.685L73.3614 478.064L72.0883 477.723L70.85 482.344Z" fill="#262274"/>
<path d="M103.9 483.172L65.9677 473.008C64.5644 472.632 63.1412 472.871 61.9734 473.559C60.7949 474.254 59.8702 475.412 59.4797 476.869C59.0893 478.326 59.3111 479.792 59.9841 480.983C60.6513 482.163 61.7647 483.081 63.1679 483.457L101.1 493.621C102.503 493.997 103.927 493.759 105.094 493.07C106.273 492.375 107.197 491.217 107.588 489.76C107.978 488.303 107.757 486.837 107.084 485.646C106.416 484.466 105.303 483.548 103.9 483.172ZM67.3568 497.951C65.9161 499.243 63.6586 499.077 62.3147 497.577C60.9701 496.079 61.0482 493.816 62.4881 492.525L66.2494 489.151L61.9509 487.999C59.2894 487.286 57.1733 485.54 55.9041 483.294C54.6405 481.059 54.2188 478.335 54.9376 475.652C55.6565 472.969 57.3836 470.821 59.5955 469.517C61.8177 468.207 64.5233 467.753 67.1847 468.466L105.117 478.63C107.778 479.343 109.894 481.089 111.164 483.335C112.427 485.57 112.849 488.294 112.13 490.977C111.411 493.659 109.684 495.808 107.473 497.111C105.25 498.422 102.544 498.876 99.883 498.163L74.7366 491.425L67.3568 497.951Z" fill="#00A4E8"/>
</g>
<defs>
<clipPath id="clip0_714_117">
<rect width="806.1" height="598.97" fill="white" transform="translate(0.5)"/>
</clipPath>
</defs>
</svg>
