<svg width="100" height="23" viewBox="0 0 100 23" fill="none" xmlns="http://www.w3.org/2000/svg">
<g clip-path="url(#clip0_714_113)">
<path d="M0.500205 15.5C0.494859 15.1135 0.594308 14.7327 0.787988 14.3982C0.981667 14.0637 1.26234 13.7878 1.6002 13.6C6.1002 10.7 24.9002 0 53.1002 0C80.0002 0 94.2002 5.9 98.2002 8C98.5676 8.18739 98.8749 8.47426 99.0871 8.82789C99.2992 9.18152 99.4077 9.58767 99.4002 10C99.4002 10 89.6002 7.1 51.9002 7.1C14.2002 7.1 0.500205 15.5 0.500205 15.5Z" fill="#00A4E8"/>
<path d="M0.5 22.4V15.5C0.5 15.5 14.2 7.10001 51.9 7.10001C89.6 7.10001 99.4 10 99.4 10V21C91.7 19.7 78.2 18.4 55.3 18.4C26.8 18.4 9.4 20.7 0.5 22.4Z" fill="#0094E8"/>
</g>
<defs>
<clipPath id="clip0_714_113">
<rect width="98.9" height="22.4" fill="white" transform="translate(0.5)"/>
</clipPath>
</defs>
</svg>
