<svg width="180" height="104" viewBox="0 0 180 104" fill="none" xmlns="http://www.w3.org/2000/svg">
<g clip-path="url(#clip0_714_86)">
<path d="M125.02 20.62C126.42 18.62 126.22 17.72 126.22 17.72C126.22 17.72 126.42 16.82 125.02 14.82C123.62 12.82 110.02 1.22001 109.32 0.820014C108.62 0.420014 80.82 -1.37999 77.92 2.12001C75.02 5.62001 75.32 17.72 75.32 17.72C75.32 17.72 75.02 29.82 77.92 33.32C80.82 36.82 108.62 35.02 109.32 34.62C110.02 34.22 123.62 22.62 125.02 20.62Z" fill="#D42F2F"/>
<path opacity="0.25" d="M125.02 20.62C126.42 18.62 126.22 17.72 126.22 17.72C126.22 17.72 126.42 16.82 125.02 14.82C124.12 13.52 118.12 8.22002 113.82 4.52002C111.61 8.57031 110.442 13.1063 110.42 17.72C110.394 22.3399 111.565 26.8878 113.82 30.92C118.12 27.22 124.12 21.92 125.02 20.62Z" fill="black"/>
<path d="M52.72 49.72C54.72 51.12 55.62 50.92 55.62 50.92C55.62 50.92 56.52 51.12 58.52 49.72C60.52 48.32 72.12 34.72 72.52 34.02C72.92 33.32 74.72 5.52002 71.22 2.62002C67.72 -0.279984 55.62 0.0200163 55.62 0.0200163C55.62 0.0200163 43.52 -0.179984 40.02 2.62002C36.52 5.42002 38.32 33.32 38.72 34.02C39.12 34.72 50.72 48.32 52.72 49.72Z" fill="#D42F2F"/>
<path opacity="0.25" d="M52.72 49.72C54.72 51.12 55.62 50.92 55.62 50.92C55.62 50.92 56.52 51.12 58.52 49.72C59.82 48.82 65.12 42.82 68.82 38.52C64.7698 36.3104 60.2338 35.142 55.62 35.12C51.0002 35.0936 46.4523 36.265 42.42 38.52C46.12 42.82 51.42 48.82 52.72 49.72Z" fill="black"/>
<path d="M176.42 2.22002C173.52 -1.27998 145.72 0.520021 145.02 0.920021C144.32 1.32002 130.72 12.92 129.32 14.92C127.92 16.92 128.12 17.82 128.12 17.82C128.12 17.82 127.92 18.72 129.32 20.72C130.72 22.72 144.32 34.32 145.02 34.72C145.72 35.12 173.52 36.92 176.42 33.42C179.32 29.92 179.02 17.82 179.02 17.82C179.02 17.82 179.32 5.72002 176.42 2.22002Z" fill="#D42F2F"/>
<path opacity="0.25" d="M140.62 4.62003C136.32 8.32003 130.32 13.62 129.42 14.92C128.02 16.92 128.22 17.82 128.22 17.82C128.22 17.82 128.02 18.72 129.42 20.72C130.32 22.02 136.32 27.32 140.62 31.02C142.83 26.9697 143.998 22.4338 144.02 17.82C143.998 13.2063 142.83 8.67032 140.62 4.62003Z" fill="black"/>
<path d="M21.12 1.22001C19.12 -0.179992 18.22 0.0200084 18.22 0.0200084C18.22 0.0200084 17.32 -0.179992 15.32 1.22001C13.32 2.62001 1.72001 16.22 1.32001 16.92C0.920014 17.62 -0.879986 45.42 2.62001 48.32C6.12001 51.22 18.22 50.92 18.22 50.92C18.22 50.92 30.32 51.22 33.82 48.32C37.32 45.42 35.52 17.62 35.12 16.92C34.72 16.22 23.12 2.62001 21.12 1.22001Z" fill="#D42F2F"/>
<path opacity="0.25" d="M21.12 1.22001C19.12 -0.179992 18.22 0.0200084 18.22 0.0200084C18.22 0.0200084 17.32 -0.179992 15.32 1.22001C14.02 2.12001 8.72002 8.12001 5.02002 12.42C9.07031 14.6296 13.6063 15.798 18.22 15.82C22.8399 15.8465 27.3878 14.675 31.42 12.42C27.72 8.12001 22.42 2.12001 21.12 1.22001Z" fill="black"/>
<path d="M21.12 1.22001C19.12 -0.179992 18.22 0.0200084 18.22 0.0200084C18.22 0.0200084 17.32 -0.179992 15.32 1.22001C13.32 2.62001 1.72001 16.22 1.32001 16.92C0.920014 17.62 -0.879986 45.42 2.62001 48.32C6.12001 51.22 18.22 50.92 18.22 50.92C18.22 50.92 30.32 51.22 33.82 48.32C37.32 45.42 35.52 17.62 35.12 16.92C34.72 16.22 23.12 2.62001 21.12 1.22001Z" fill="#D42F2F"/>
<path opacity="0.25" d="M21.12 1.22001C19.12 -0.179992 18.22 0.0200084 18.22 0.0200084C18.22 0.0200084 17.32 -0.179992 15.32 1.22001C14.02 2.12001 8.72002 8.12001 5.02002 12.42C9.07031 14.6296 13.6063 15.798 18.22 15.82C22.8399 15.8465 27.3878 14.675 31.42 12.42C27.72 8.12001 22.42 2.12001 21.12 1.22001Z" fill="black"/>
<path d="M125.02 73.62C126.42 71.62 126.22 70.72 126.22 70.72C126.22 70.72 126.42 69.82 125.02 67.82C123.62 65.82 110.02 54.22 109.32 53.82C108.62 53.42 80.82 51.62 77.92 55.12C75.02 58.62 75.32 70.72 75.32 70.72C75.32 70.72 75.02 82.82 77.92 86.32C80.82 89.82 108.62 88.02 109.32 87.62C110.02 87.22 123.62 75.62 125.02 73.62Z" fill="#00A4E8"/>
<path opacity="0.25" d="M125.02 73.62C126.42 71.62 126.22 70.72 126.22 70.72C126.22 70.72 126.42 69.82 125.02 67.82C124.12 66.52 118.12 61.22 113.82 57.52C111.61 61.5703 110.442 66.1062 110.42 70.72C110.394 75.3399 111.565 79.8878 113.82 83.92C118.12 80.22 124.12 74.92 125.02 73.62Z" fill="white"/>
<path d="M52.72 102.72C54.72 104.12 55.62 103.92 55.62 103.92C55.62 103.92 56.52 104.12 58.52 102.72C60.52 101.32 72.12 87.72 72.52 87.02C72.92 86.32 74.72 58.52 71.22 55.62C67.72 52.72 55.62 53.02 55.62 53.02C55.62 53.02 43.52 52.82 40.02 55.62C36.52 58.42 38.32 86.32 38.72 87.02C39.12 87.72 50.72 101.32 52.72 102.72Z" fill="#00A4E8"/>
<path opacity="0.25" d="M52.72 102.72C54.72 104.12 55.62 103.92 55.62 103.92C55.62 103.92 56.52 104.12 58.52 102.72C59.82 101.82 65.12 95.82 68.82 91.52C64.7698 89.3104 60.2338 88.142 55.62 88.12C51.0002 88.0936 46.4523 89.265 42.42 91.52C46.12 95.82 51.42 101.82 52.72 102.72Z" fill="white"/>
<path d="M176.42 55.12C173.52 51.62 145.72 53.42 145.02 53.82C144.32 54.22 130.72 65.82 129.32 67.82C127.92 69.82 128.12 70.72 128.12 70.72C128.12 70.72 127.92 71.62 129.32 73.62C130.72 75.62 144.32 87.22 145.02 87.62C145.72 88.02 173.52 89.82 176.42 86.32C179.32 82.82 179.02 70.72 179.02 70.72C179.02 70.72 179.32 58.62 176.42 55.12Z" fill="#00A4E8"/>
<path opacity="0.25" d="M140.62 57.62C136.32 61.32 130.32 66.62 129.42 67.92C128.02 69.92 128.22 70.82 128.22 70.82C128.22 70.82 128.02 71.72 129.42 73.72C130.32 75.02 136.32 80.32 140.62 84.02C142.851 79.978 144.02 75.4366 144.02 70.82C144.02 66.2034 142.851 61.662 140.62 57.62Z" fill="white"/>
<path d="M21.12 54.22C19.12 52.82 18.22 53.02 18.22 53.02C18.22 53.02 17.32 52.82 15.32 54.22C13.32 55.62 1.72001 69.22 1.32001 69.92C0.920014 70.62 -0.879986 98.42 2.62001 101.32C6.12001 104.22 18.22 103.92 18.22 103.92C18.22 103.92 30.32 104.22 33.82 101.32C37.32 98.42 35.52 70.62 35.12 69.92C34.72 69.22 23.12 55.62 21.12 54.22Z" fill="#00A4E8"/>
<path opacity="0.25" d="M21.12 54.22C19.12 52.82 18.22 53.02 18.22 53.02C18.22 53.02 17.32 52.82 15.32 54.22C14.02 55.12 8.72002 61.12 5.02002 65.42C9.07031 67.6296 13.6063 68.798 18.22 68.82C22.8399 68.8465 27.3878 67.675 31.42 65.42C27.72 61.12 22.42 55.12 21.12 54.22Z" fill="white"/>
</g>
<defs>
<clipPath id="clip0_714_86">
<rect width="178.53" height="103.93" fill="white" transform="translate(0.5)"/>
</clipPath>
</defs>
</svg>
