<svg width="225" height="113" viewBox="0 0 225 113" fill="none" xmlns="http://www.w3.org/2000/svg">
<g clip-path="url(#clip0_714_39)">
<path d="M84.3 111.3C79.104 111.31 74.022 109.778 69.6975 106.897C65.3731 104.016 62.0008 99.9172 60.0078 95.1186C58.0148 90.32 57.4908 85.0378 58.502 79.9412C59.5133 74.8445 62.0144 70.1626 65.6885 66.4885C69.3627 62.8144 74.0445 60.3133 79.1412 59.302C84.2379 58.2907 89.52 58.8148 94.3186 60.8078C99.1172 62.8008 103.216 66.1731 106.097 70.4975C108.978 74.822 110.51 79.904 110.5 85.1C110.466 92.0382 107.695 98.6824 102.788 103.588C97.8824 108.495 91.2382 111.266 84.3 111.3Z" fill="#E6E6E6"/>
<path d="M84.3 59.8C89.2897 59.8099 94.1646 61.2979 98.3093 64.0762C102.454 66.8545 105.683 70.7985 107.587 75.4103C109.492 80.0221 109.988 85.0949 109.012 89.9883C108.036 94.8816 105.633 99.3761 102.104 102.904C98.5762 106.433 94.0816 108.836 89.1883 109.812C84.2949 110.788 79.2221 110.292 74.6103 108.387C69.9986 106.483 66.0546 103.254 63.2762 99.1093C60.4979 94.9646 59.0099 90.0897 59 85.1C59.0027 78.3908 61.6691 71.9572 66.4132 67.2131C71.1572 62.469 77.5909 59.8027 84.3 59.8ZM84.3 57.8C78.9105 57.7901 73.6391 59.3786 69.1524 62.3647C64.6656 65.3507 61.1651 69.6002 59.0935 74.5757C57.0219 79.5512 56.4722 85.0292 57.514 90.3171C58.5557 95.605 61.1421 100.465 64.9461 104.283C68.7501 108.101 73.6008 110.705 78.8848 111.767C84.1689 112.828 89.6489 112.298 94.632 110.245C99.615 108.191 103.877 104.707 106.88 100.231C109.882 95.7551 111.49 90.4895 111.5 85.1C111.497 77.8777 108.634 70.9505 103.537 65.8342C98.4389 60.7179 91.5223 57.8291 84.3 57.8Z" fill="#F0F0F0"/>
<path d="M84.3 66.2C80.562 66.2 76.9078 67.3085 73.7998 69.3852C70.6917 71.462 68.2692 74.4138 66.8387 77.8673C65.4082 81.3208 65.0339 85.121 65.7632 88.7872C66.4925 92.4534 68.2925 95.8211 70.9357 98.4643C73.5789 101.108 76.9466 102.908 80.6128 103.637C84.2791 104.366 88.0792 103.992 91.5327 102.561C94.9863 101.131 97.938 98.7084 100.015 95.6003C102.092 92.4922 103.2 88.8381 103.2 85.1C103.187 80.0915 101.191 75.2918 97.6498 71.7503C94.1082 68.2087 89.3086 66.2132 84.3 66.2ZM84.3 101.1C81.1355 101.1 78.0421 100.162 75.4109 98.4035C72.7797 96.6454 70.729 94.1466 69.518 91.2229C68.307 88.2993 67.9901 85.0823 68.6075 81.9786C69.2248 78.8749 70.7487 76.0239 72.9863 73.7863C75.224 71.5487 78.0749 70.0248 81.1786 69.4074C84.2823 68.7901 87.4993 69.1069 90.423 70.3179C93.3466 71.5289 95.8454 73.5797 97.6035 76.2109C99.3616 78.8421 100.3 81.9355 100.3 85.1C100.3 89.3435 98.6143 93.4131 95.6137 96.4137C92.6132 99.4143 88.5435 101.1 84.3 101.1Z" fill="#00A4E8"/>
<path d="M27.7 111.3C22.5269 111.261 17.4812 109.69 13.199 106.788C8.9168 103.885 5.58983 99.7793 3.63745 94.9885C1.68506 90.1977 1.19466 84.9362 2.22807 79.8671C3.26148 74.7981 5.77243 70.1484 9.4444 66.5043C13.1164 62.8601 17.785 60.3846 22.8618 59.3898C27.9385 58.3949 33.1962 58.9253 37.972 60.9141C42.7478 62.9028 46.8279 66.2609 49.698 70.5651C52.5682 74.8692 54.0999 79.9267 54.1 85.1C54.0961 88.5564 53.4092 91.978 52.0786 95.168C50.748 98.358 48.8001 101.254 46.3468 103.688C43.8935 106.123 40.9831 108.049 37.7831 109.355C34.583 110.661 31.1564 111.322 27.7 111.3Z" fill="#E6E6E6"/>
<path d="M27.8 59.8C32.7897 59.8099 37.6646 61.2979 41.8093 64.0762C45.954 66.8545 49.1826 70.7985 51.0875 75.4103C52.9924 80.0221 53.4882 85.0949 52.5123 89.9883C51.5365 94.8816 49.1327 99.3761 45.6044 102.904C42.0761 106.433 37.5816 108.836 32.6883 109.812C27.7949 110.788 22.7221 110.292 18.1103 108.387C13.4985 106.483 9.55453 103.254 6.77623 99.1093C3.99793 94.9646 2.5099 90.0897 2.50001 85.1C2.50266 78.3908 5.16904 71.9572 9.91314 67.2131C14.6572 62.469 21.0908 59.8027 27.8 59.8ZM27.8 57.8C22.4006 57.8 17.1224 59.4011 12.6329 62.4009C8.14348 65.4006 4.64437 69.6643 2.5781 74.6527C0.511829 79.6412 -0.0288024 85.1303 1.02457 90.426C2.07795 95.7216 4.67802 100.586 8.496 104.404C12.314 108.222 17.1784 110.822 22.474 111.875C27.7697 112.929 33.2588 112.388 38.2473 110.322C43.2357 108.256 47.4994 104.757 50.4991 100.267C53.4989 95.7776 55.1 90.4994 55.1 85.1C55.0894 77.8628 52.2098 70.9251 47.0923 65.8077C41.9749 60.6902 35.0372 57.8106 27.8 57.8Z" fill="#F0F0F0"/>
<path d="M42.1 72.7L40.1 70.7L27.8 83.1L15.4 70.7L13.4 72.7L25.7 85.1L13.4 97.4L15.4 99.5L27.8 87.1L40.1 99.5L42.1 97.4L29.8 85.1L42.1 72.7Z" fill="#00A4E8"/>
<path d="M140.8 111.3C135.613 111.29 130.544 109.743 126.235 106.855C121.926 103.967 118.569 99.8669 116.589 95.0724C114.608 90.2779 114.092 85.004 115.107 79.9167C116.121 74.8293 118.62 70.1566 122.288 66.4885C125.957 62.8204 130.629 60.3213 135.717 59.3069C140.804 58.2924 146.078 58.808 150.872 60.7886C155.667 62.7692 159.767 66.126 162.655 70.4351C165.543 74.7443 167.09 79.8125 167.1 85C167.107 88.4556 166.431 91.8785 165.111 95.0724C163.792 98.2662 161.855 101.168 159.412 103.612C156.968 106.055 154.066 107.992 150.872 109.311C147.679 110.631 144.256 111.307 140.8 111.3Z" fill="#E6E6E6"/>
<path d="M140.8 59.8C145.79 59.8099 150.665 61.2979 154.809 64.0762C158.954 66.8545 162.183 70.7985 164.087 75.4103C165.992 80.0221 166.488 85.0949 165.512 89.9883C164.536 94.8816 162.133 99.3761 158.604 102.904C155.076 106.433 150.582 108.836 145.688 109.812C140.795 110.788 135.722 110.292 131.11 108.387C126.499 106.483 122.555 103.254 119.776 99.1093C116.998 94.9646 115.51 90.0897 115.5 85.1C115.503 78.3908 118.169 71.9572 122.913 67.2131C127.657 62.469 134.091 59.8027 140.8 59.8ZM140.8 57.8C135.41 57.8099 130.145 59.4178 125.669 62.4202C121.193 65.4227 117.709 69.685 115.655 74.6681C113.602 79.6511 113.072 85.1312 114.133 90.4152C115.195 95.6992 117.799 100.55 121.617 104.354C125.435 108.158 130.295 110.744 135.583 111.786C140.871 112.828 146.349 112.278 151.324 110.207C156.3 108.135 160.549 104.634 163.535 100.148C166.521 95.661 168.11 90.3895 168.1 85C168.071 77.7778 165.182 70.8611 160.066 65.7635C154.95 60.6659 148.022 57.8026 140.8 57.8Z" fill="#F0F0F0"/>
<path d="M152.3 70.7H126.5V99.3H155.1V70.7H152.3ZM152.3 96.6H129.3V73.6H152.3V96.6Z" fill="#00A4E8"/>
<path d="M197.2 111.3C192.008 111.29 186.936 109.741 182.625 106.848C178.314 103.956 174.957 99.8496 172.979 95.0493C171.001 90.2489 170.492 84.9699 171.514 79.8799C172.537 74.7898 175.046 70.1173 178.724 66.4532C182.402 62.789 187.084 60.2979 192.178 59.2947C197.272 58.2916 202.549 58.8215 207.342 60.8174C212.134 62.8133 216.228 66.1856 219.104 70.5079C221.98 74.8302 223.51 79.9083 223.5 85.1C223.466 92.0554 220.681 98.7147 215.753 103.624C210.825 108.532 204.156 111.292 197.2 111.3Z" fill="#E6E6E6"/>
<path d="M197.3 59.8C202.29 59.8099 207.165 61.2979 211.309 64.0762C215.454 66.8545 218.683 70.7985 220.588 75.4103C222.492 80.0221 222.988 85.0949 222.012 89.9883C221.036 94.8816 218.633 99.3761 215.104 102.904C211.576 106.433 207.082 108.836 202.188 109.812C197.295 110.788 192.222 110.292 187.61 108.387C182.999 106.483 179.055 103.254 176.276 99.1093C173.498 94.9646 172.01 90.0897 172 85.1C172.003 78.3908 174.669 71.9572 179.413 67.2131C184.157 62.469 190.591 59.8027 197.3 59.8ZM197.3 57.8C191.91 57.7901 186.639 59.3786 182.152 62.3647C177.666 65.3507 174.165 69.6002 172.094 74.5757C170.022 79.5512 169.472 85.0292 170.514 90.3171C171.556 95.605 174.142 100.465 177.946 104.283C181.75 108.101 186.601 110.705 191.885 111.767C197.169 112.828 202.649 112.298 207.632 110.245C212.615 108.191 216.877 104.707 219.88 100.231C222.882 95.7551 224.49 90.4895 224.5 85.1C224.497 77.8777 221.634 70.9505 216.537 65.8342C211.439 60.7179 204.522 57.8291 197.3 57.8Z" fill="#F0F0F0"/>
<path d="M213.2 93.1L197.2 65.5L181.2 93.1L179.6 95.9H214.8L213.2 93.1ZM197.3 93.1H184.6L197.3 71.2L210 93.1H197.3Z" fill="#00A4E8"/>
<path d="M84.3 53.5C79.1082 53.5099 74.0301 51.98 69.7079 49.1038C65.3856 46.2277 62.0133 42.1344 60.0173 37.3416C58.0214 32.5489 57.4915 27.2719 58.4947 22.178C59.4979 17.084 61.989 12.402 65.6531 8.72388C69.3173 5.04577 73.9898 2.53679 79.0799 1.51423C84.1699 0.491671 89.4489 1.00145 94.2492 2.9791C99.0496 4.95676 103.156 8.31347 106.048 12.6247C108.941 16.936 110.49 22.0082 110.5 27.2C110.492 34.1555 107.732 40.8253 102.824 45.7529C97.9146 50.6806 91.2554 53.4657 84.3 53.5Z" fill="white"/>
<path d="M84.3 2C89.2897 2.00989 94.1646 3.49792 98.3093 6.27622C102.454 9.05452 105.683 12.9985 107.587 17.6103C109.492 22.2221 109.988 27.2949 109.012 32.1883C108.036 37.0816 105.633 41.5761 102.104 45.1044C98.5761 48.6327 94.0816 51.0365 89.1882 52.0123C84.2949 52.9882 79.2221 52.4924 74.6103 50.5875C69.9985 48.6826 66.0545 45.454 63.2762 41.3093C60.4979 37.1646 59.0099 32.2897 59 27.3C58.9921 23.9753 59.6411 20.6819 60.9097 17.6088C62.1783 14.5356 64.0416 11.7435 66.3925 9.39255C68.7434 7.04165 71.5356 5.17837 74.6087 3.90973C77.6818 2.64109 80.9753 1.99209 84.3 2ZM84.3 1.27446e-07C78.8963 -0.0197936 73.6084 1.56448 69.1058 4.55219C64.6032 7.53989 61.0885 11.7966 59.0069 16.7833C56.9253 21.7699 56.3703 27.2621 57.4124 32.5644C58.4545 37.8667 61.0466 42.7404 64.8606 46.5684C68.6745 50.3964 73.5387 53.0064 78.8371 54.0679C84.1355 55.1294 89.6298 54.5946 94.624 52.5313C99.6183 50.468 103.888 46.969 106.892 42.4774C109.896 37.9858 111.5 32.7037 111.5 27.3C111.49 20.0801 108.624 13.1574 103.528 8.04285C98.4319 2.92825 91.5198 0.0369635 84.3 1.27446e-07Z" fill="white"/>
<path d="M84.3 8.39999C80.5619 8.39999 76.9078 9.50846 73.7997 11.5852C70.6916 13.662 68.2691 16.6138 66.8386 20.0673C65.4082 23.5208 65.0339 27.321 65.7631 30.9872C66.4924 34.6534 68.2924 38.0211 70.9357 40.6643C73.5789 43.3075 76.9465 45.1076 80.6128 45.8368C84.279 46.5661 88.0792 46.1918 91.5327 44.7613C94.9862 43.3308 97.938 40.9084 100.015 37.8003C102.092 34.6922 103.2 31.0381 103.2 27.3C103.187 22.2915 101.191 17.4918 97.6497 13.9503C94.1081 10.4087 89.3085 8.41319 84.3 8.39999ZM84.3 43.3C81.1355 43.3 78.042 42.3616 75.4108 40.6035C72.7797 38.8454 70.7289 36.3465 69.5179 33.4229C68.3069 30.4993 67.99 27.2822 68.6074 24.1785C69.2248 21.0749 70.7486 18.2239 72.9863 15.9863C75.2239 13.7486 78.0748 12.2248 81.1785 11.6074C84.2822 10.9901 87.4993 11.3069 90.4229 12.5179C93.3465 13.7289 95.8454 15.7797 97.6035 18.4109C99.3616 21.0421 100.3 24.1355 100.3 27.3C100.3 31.5435 98.6143 35.6131 95.6137 38.6137C92.6131 41.6143 88.5434 43.3 84.3 43.3Z" fill="#D42F2F"/>
<path d="M27.7 53.5C22.5083 53.4901 17.4361 51.9409 13.1248 49.0483C8.8135 46.1557 5.45679 42.0496 3.47914 37.2492C1.50148 32.4489 0.991702 27.1699 2.01426 22.0799C3.03682 16.9898 5.5458 12.3173 9.22391 8.65317C12.902 4.98904 17.5841 2.49789 22.678 1.49472C27.7719 0.491561 33.0489 1.02145 37.8417 3.01737C42.6344 5.0133 46.7277 8.38562 49.6039 12.7079C52.48 17.0302 54.0099 22.1082 54 27.3C53.9762 34.2587 51.1945 40.924 46.2646 45.8352C41.3347 50.7464 34.6587 53.5027 27.7 53.5Z" fill="white"/>
<path d="M27.8 2.00002C32.7897 2.00991 37.6646 3.49793 41.8093 6.27624C45.954 9.05454 49.1826 12.9986 51.0875 17.6103C52.9924 22.2221 53.4882 27.2949 52.5123 32.1883C51.5365 37.0816 49.1327 41.5761 45.6044 45.1044C42.0761 48.6327 37.5816 51.0365 32.6883 52.0123C27.7949 52.9882 22.7221 52.4924 18.1103 50.5875C13.4985 48.6826 9.55453 45.454 6.77623 41.3093C3.99793 37.1646 2.5099 32.2897 2.50001 27.3C2.50795 20.5925 5.17603 14.1619 9.91898 9.41898C14.6619 4.67603 21.0925 2.00796 27.8 2.00002ZM27.8 1.65213e-05C22.4006 1.65213e-05 17.1224 1.60113 12.6329 4.6009C8.14348 7.60066 4.64437 11.8643 2.5781 16.8528C0.511829 21.8412 -0.0288024 27.3303 1.02457 32.626C2.07795 37.9217 4.67802 42.7861 8.496 46.604C12.314 50.422 17.1784 53.0221 22.474 54.0755C27.7697 55.1288 33.2588 54.5882 38.2473 52.5219C43.2357 50.4557 47.4994 46.9565 50.4991 42.4671C53.4989 37.9776 55.1 32.6994 55.1 27.3C55.104 23.7138 54.4005 20.1621 53.03 16.8481C51.6594 13.5341 49.6487 10.523 47.1128 7.9872C44.577 5.45137 41.5659 3.44062 38.2519 2.07007C34.938 0.69951 31.3862 -0.00393086 27.8 1.65213e-05Z" fill="white"/>
<path d="M42.1 14.9L40.1 12.9L27.8 25.2L15.4 12.9L13.4 14.9L25.7 27.2L13.4 39.6L15.4 41.6L27.8 29.3L40.1 41.6L42.1 39.6L29.8 27.2L42.1 14.9Z" fill="#D42F2F"/>
<path d="M140.8 54.2C135.608 54.1901 130.536 52.6409 126.225 49.7483C121.913 46.8557 118.557 42.7496 116.579 37.9493C114.601 33.1489 114.092 27.8699 115.114 22.7799C116.137 17.6898 118.646 13.0173 122.324 9.35318C126.002 5.68905 130.684 3.1979 135.778 2.19474C140.872 1.19157 146.149 1.72146 150.942 3.71739C155.734 5.71331 159.828 9.08564 162.704 13.4079C165.58 17.7302 167.11 22.8083 167.1 28C167.096 31.448 166.412 34.8613 165.088 38.0448C163.764 41.2282 161.825 44.1194 159.382 46.5528C156.939 48.9862 154.041 50.9142 150.852 52.2264C147.664 53.5385 144.248 54.2092 140.8 54.2Z" fill="white"/>
<path d="M140.8 2.70001C145.794 2.70991 150.673 4.20047 154.82 6.9832C158.967 9.76592 162.195 13.7158 164.097 18.3334C165.999 22.951 166.489 28.029 165.505 32.925C164.521 37.8211 162.107 42.3155 158.569 45.8397C155.031 49.364 150.527 51.7599 145.627 52.7245C140.727 53.6891 135.651 53.179 131.041 51.2588C126.431 49.3385 122.494 46.0944 119.728 41.9365C116.961 37.7787 115.49 32.894 115.5 27.9C115.534 21.2098 118.214 14.8049 122.954 10.0835C127.694 5.36219 134.11 2.70785 140.8 2.70001ZM140.8 0.700012C135.415 0.709903 130.153 2.31523 125.68 5.31329C121.206 8.31136 117.721 12.5677 115.665 17.545C113.608 22.5222 113.073 27.9971 114.126 33.2784C115.179 38.5598 117.773 43.4107 121.581 47.2186C125.389 51.0266 130.24 53.6209 135.522 54.6739C140.803 55.727 146.278 55.1915 151.255 53.1352C156.232 51.079 160.489 47.594 163.487 43.1204C166.485 38.6469 168.09 33.3853 168.1 28C168.089 20.7628 165.21 13.8251 160.092 8.70768C154.975 3.59023 148.037 0.710593 140.8 0.700012Z" fill="white"/>
<path d="M152.3 13.5H126.5V42.1H155.1V13.5H152.3ZM152.3 39.4H129.3V16.4H152.3V39.4Z" fill="#D42F2F"/>
<path d="M197.2 54.8C191.994 54.8 186.905 53.2549 182.578 50.3606C178.251 47.4663 174.88 43.3529 172.893 38.5413C170.905 33.7298 170.39 28.4366 171.413 23.3322C172.436 18.2278 174.951 13.5418 178.639 9.8677C182.327 6.19359 187.022 3.69668 192.131 2.69321C197.239 1.68974 202.53 2.22485 207.334 4.23078C212.138 6.23671 216.239 9.6232 219.116 13.9614C221.994 18.2995 223.52 23.3941 223.5 28.6C223.466 35.5554 220.681 42.2147 215.753 47.1236C210.825 52.0325 204.156 54.7922 197.2 54.8Z" fill="white"/>
<path d="M197.3 3.29999C202.304 3.29999 207.195 4.78381 211.356 7.56381C215.517 10.3438 218.759 14.2951 220.674 18.9181C222.589 23.5411 223.09 28.6281 222.114 33.5358C221.138 38.4435 218.728 42.9515 215.19 46.4898C211.652 50.0281 207.144 52.4376 202.236 53.4139C197.328 54.3901 192.241 53.889 187.618 51.9741C182.995 50.0592 179.044 46.8165 176.264 42.6559C173.484 38.4953 172 33.6039 172 28.6C172.008 21.8924 174.676 15.4619 179.419 10.719C184.162 5.976 190.592 3.30793 197.3 3.29999ZM197.3 1.29999C191.896 1.28019 186.608 2.86447 182.106 5.85218C177.603 8.83988 174.089 13.0966 172.007 18.0833C169.925 23.0699 169.37 28.5621 170.412 33.8644C171.455 39.1666 174.047 44.0404 177.861 47.8684C181.675 51.6964 186.539 54.3064 191.837 55.3679C197.136 56.4294 202.63 55.8946 207.624 53.8313C212.618 51.768 216.888 48.269 219.892 43.7774C222.896 39.2858 224.5 34.0037 224.5 28.6C224.49 21.3801 221.624 14.4574 216.528 9.34283C211.432 4.22823 204.52 1.33695 197.3 1.29999Z" fill="white"/>
<path d="M213.2 36.6L197.2 9L181.2 36.6L179.6 39.4H214.8L213.2 36.6ZM197.3 36.6H184.6L197.3 14.7L210 36.6H197.3Z" fill="#D42F2F"/>
</g>
<defs>
<clipPath id="clip0_714_39">
<rect width="224" height="112.4" fill="white" transform="translate(0.5)"/>
</clipPath>
</defs>
</svg>
