<svg width="287" height="94" viewBox="0 0 287 94" fill="none" xmlns="http://www.w3.org/2000/svg">
<g clip-path="url(#clip0_714_2)">
<path d="M47.5 92.5C38.501 92.5 29.704 89.8315 22.2216 84.8319C14.7391 79.8323 8.90729 72.7261 5.4635 64.4121C2.01971 56.098 1.11866 46.9495 2.87429 38.1234C4.62992 29.2972 8.96337 21.1899 15.3267 14.8266C21.69 8.46334 29.7973 4.12989 38.6234 2.37426C47.4495 0.618632 56.5981 1.51968 64.9121 4.96347C73.2262 8.40726 80.3323 14.2391 85.3319 21.7215C90.3315 29.204 93 38.0009 93 47C92.9894 59.0641 88.1923 70.631 79.6617 79.1617C71.1311 87.6923 59.5641 92.4894 47.5 92.5Z" fill="#D42F2F"/>
<path d="M47.5 3.00003C56.2024 3.00003 64.7094 5.58058 71.9451 10.4154C79.1809 15.2501 84.8205 22.122 88.1507 30.162C91.481 38.2019 92.3523 47.0488 90.6546 55.584C88.9568 64.1192 84.7662 71.9592 78.6127 78.1127C72.4592 84.2662 64.6192 88.4568 56.084 90.1546C47.5488 91.8523 38.7019 90.981 30.6619 87.6507C22.622 84.3205 15.7501 78.6809 10.9154 71.4451C6.08058 64.2094 3.50002 55.7024 3.50002 47C3.50002 35.3305 8.13572 24.1389 16.3873 15.8873C24.6389 7.63573 35.8305 3.00003 47.5 3.00003ZM47.5 2.66549e-05C38.2043 2.66549e-05 29.1173 2.75653 21.3882 7.92095C13.6591 13.0854 7.635 20.4258 4.07768 29.0139C0.520365 37.602 -0.410392 47.0522 1.40311 56.1693C3.21662 65.2864 7.69293 73.661 14.266 80.234C20.8391 86.8071 29.2137 91.2834 38.3308 93.0969C47.4479 94.9104 56.898 93.9797 65.4861 90.4224C74.0743 86.865 81.4147 80.8409 86.5791 73.1118C91.7435 65.3827 94.5 56.2957 94.5 47C94.5066 40.826 93.2954 34.7114 90.9358 29.0061C88.5761 23.3009 85.1144 18.117 80.7487 13.7513C76.383 9.38567 71.1992 5.92393 65.4939 3.56429C59.7887 1.20465 53.674 -0.00655191 47.5 2.66549e-05Z" fill="#D42F2F"/>
<path d="M47.5 74.3C62.5774 74.3 74.8 62.0774 74.8 47C74.8 31.9226 62.5774 19.7 47.5 19.7C32.4226 19.7 20.2 31.9226 20.2 47C20.2 62.0774 32.4226 74.3 47.5 74.3Z" fill="#D42F2F"/>
<path d="M239.5 92.5C230.501 92.5 221.704 89.8315 214.222 84.8319C206.739 79.8323 200.907 72.7261 197.464 64.4121C194.02 56.098 193.119 46.9495 194.874 38.1234C196.63 29.2972 200.963 21.1899 207.327 14.8266C213.69 8.46334 221.797 4.12989 230.623 2.37426C239.45 0.618632 248.598 1.51968 256.912 4.96347C265.226 8.40726 272.332 14.2391 277.332 21.7215C282.332 29.204 285 38.0009 285 47C284.989 59.0641 280.192 70.631 271.662 79.1617C263.131 87.6923 251.564 92.4894 239.5 92.5Z" fill="#D42F2F"/>
<path d="M239.5 3C248.202 3 256.709 5.58055 263.945 10.4153C271.181 15.2501 276.82 22.122 280.151 30.1619C283.481 38.2019 284.352 47.0488 282.655 55.584C280.957 64.1191 276.766 71.9592 270.613 78.1127C264.459 84.2662 256.619 88.4568 248.084 90.1545C239.549 91.8523 230.702 90.9809 222.662 87.6507C214.622 84.3204 207.75 78.6808 202.915 71.4451C198.081 64.2093 195.5 55.7024 195.5 47C195.5 35.3305 200.136 24.1389 208.387 15.8873C216.639 7.6357 227.83 3 239.5 3ZM239.5 -3.86268e-06C230.204 -3.86268e-06 221.117 2.7565 213.388 7.92092C205.659 13.0854 199.635 20.4257 196.078 29.0139C192.52 37.602 191.59 47.0521 193.403 56.1692C195.217 65.2863 199.693 73.6609 206.266 80.234C212.839 86.8071 221.214 91.2834 230.331 93.0969C239.448 94.9104 248.898 93.9797 257.486 90.4223C266.074 86.865 273.415 80.8409 278.579 73.1118C283.744 65.3827 286.5 56.2957 286.5 47C286.507 40.826 285.295 34.7114 282.936 29.0061C280.576 23.3008 277.114 18.117 272.749 13.7513C268.383 9.38564 263.199 5.9239 257.494 3.56426C251.789 1.20462 245.674 -0.00658243 239.5 -3.86268e-06Z" fill="#EDEDED"/>
<path d="M239.5 74.3C254.577 74.3 266.8 62.0774 266.8 47C266.8 31.9226 254.577 19.7 239.5 19.7C224.423 19.7 212.2 31.9226 212.2 47C212.2 62.0774 224.423 74.3 239.5 74.3Z" fill="#EBEBEB"/>
<path d="M219.2 33.5H231.8C237.6 33.5 240.5 36.2 240.5 40.6C240.5 45.7 237 47 236.1 47.3V47.4C237.7 47.6 240 48.8 240 53C240 56.1 240.4 58.9 241.4 60H236.4C235.815 58.7884 235.572 57.4395 235.7 56.1C235.7 51.3 234.7 49.1 230.4 49.1H223.6V60H219V33.5H219.2ZM223.8 45.6H231.4C234.4 45.6 235.9 44.2 235.9 41.4C235.9 38 233.7 37.4 231.3 37.4H223.8V45.6Z" fill="black"/>
<path d="M250.8 44.8C253.6 44.9 256.5 43.9 256.5 40.7C256.5 40.1882 256.394 39.682 256.19 39.213C255.985 38.7441 255.685 38.3226 255.309 37.9751C254.934 37.6276 254.49 37.3616 254.007 37.1938C253.523 37.026 253.01 36.96 252.5 37C249.6 37 248.1 39.6 248.2 42.3H244C244.2 37.3 247.4 33.5 252.6 33.5C256.6 33.5 260.8 35.8 260.8 40.4C260.8 43 259.7 45.1 257.1 45.9V46C260.1 46.6 261.8 49.1 261.8 52.5C261.8 57.4 257.5 60.4 252.6 60.4C246.6 60.4 243.6 56.8 243.5 51.4H247.7C247.6 54.5 249.3 56.9 252.6 56.9C255.4 56.9 257.6 55.2 257.6 52.3C257.6 48.3 254.2 47.8 250.8 47.9V44.8Z" fill="black"/>
<path d="M143.5 92.5C134.501 92.5 125.704 89.8315 118.222 84.8319C110.739 79.8323 104.907 72.7261 101.464 64.4121C98.0197 56.098 97.1187 46.9495 98.8743 38.1234C100.63 29.2972 104.963 21.1899 111.327 14.8266C117.69 8.46334 125.797 4.12989 134.623 2.37426C143.45 0.618632 152.598 1.51968 160.912 4.96347C169.226 8.40726 176.332 14.2391 181.332 21.7215C186.331 29.204 189 38.0009 189 47C188.989 59.0641 184.192 70.631 175.662 79.1617C167.131 87.6923 155.564 92.4894 143.5 92.5Z" fill="#D42F2F"/>
<path d="M143.5 3C152.202 3 160.709 5.58055 167.945 10.4153C175.181 15.2501 180.82 22.122 184.151 30.1619C187.481 38.2019 188.352 47.0488 186.655 55.584C184.957 64.1191 180.766 71.9592 174.613 78.1127C168.459 84.2662 160.619 88.4568 152.084 90.1545C143.549 91.8523 134.702 90.9809 126.662 87.6507C118.622 84.3204 111.75 78.6808 106.915 71.4451C102.081 64.2093 99.5 55.7024 99.5 47C99.5 35.3305 104.136 24.1389 112.387 15.8873C120.639 7.6357 131.83 3 143.5 3ZM143.5 -3.86268e-06C134.204 -3.86268e-06 125.117 2.7565 117.388 7.92092C109.659 13.0854 103.635 20.4257 100.078 29.0139C96.5204 37.602 95.5896 47.0521 97.4031 56.1692C99.2166 65.2863 103.693 73.6609 110.266 80.234C116.839 86.8071 125.214 91.2834 134.331 93.0969C143.448 94.9104 152.898 93.9797 161.486 90.4223C170.074 86.865 177.415 80.8409 182.579 73.1118C187.744 65.3827 190.5 56.2957 190.5 47C190.507 40.826 189.295 34.7114 186.936 29.0061C184.576 23.3008 181.114 18.117 176.749 13.7513C172.383 9.38564 167.199 5.9239 161.494 3.56426C155.789 1.20462 149.674 -0.00658243 143.5 -3.86268e-06Z" fill="#EDEDED"/>
<path d="M143.5 74.3C158.577 74.3 170.8 62.0774 170.8 47C170.8 31.9226 158.577 19.7 143.5 19.7C128.423 19.7 116.2 31.9226 116.2 47C116.2 62.0774 128.423 74.3 143.5 74.3Z" fill="#EBEBEB"/>
<path d="M125.6 33.5H130.2V55.9H143.6V59.9H125.6V33.5Z" fill="black"/>
<path d="M152.4 44.8C155.2 44.9 158.1 43.9 158.1 40.7C158.1 40.1882 157.995 39.682 157.79 39.213C157.585 38.7441 157.285 38.3226 156.909 37.9751C156.534 37.6276 156.09 37.3616 155.607 37.1938C155.123 37.026 154.61 36.96 154.1 37C151.2 37 149.7 39.6 149.8 42.3H145.6C145.8 37.3 149 33.5 154.2 33.5C158.2 33.5 162.4 35.8 162.4 40.4C162.4 43 161.3 45.1 158.7 45.9V46C161.7 46.6 163.4 49.1 163.4 52.5C163.4 57.4 159.1 60.4 154.2 60.4C148.2 60.4 145.2 56.8 145.1 51.4H149.3C149.2 54.5 150.9 56.9 154.2 56.9C157 56.9 159.2 55.2 159.2 52.3C159.2 48.3 155.8 47.8 152.4 47.9V44.8Z" fill="black"/>
</g>
<defs>
<clipPath id="clip0_714_2">
<rect width="286" height="94" fill="white" transform="translate(0.5)"/>
</clipPath>
</defs>
</svg>
