<svg width="201" height="91" viewBox="0 0 201 91" fill="none" xmlns="http://www.w3.org/2000/svg">
<g clip-path="url(#clip0_714_24)">
<path d="M200.5 90.8C200.5 90.8 167.8 87.6 149.9 87.6C132 87.6 101.5 90 101.5 90C101.5 90 104.6 45.3 106.3 38C108 30.7 114 16.7 123.2 10.1C132.4 3.5 135.2 0 146 0C156.8 0 171.4 6.4 180.6 21.4C189.8 36.4 200.5 90.8 200.5 90.8Z" fill="#00A4E8"/>
<path d="M102 83.2C102 83.2 128.1 78.8 151 78.8C173.9 78.8 198.9 83.2 198.9 83.2C199.9 87.9 200.5 90.8 200.5 90.8C200.5 90.8 167.8 87.6 149.9 87.6C132 87.6 101.5 90 101.5 90C101.5 90 101.7 87.3 102 83.2Z" fill="#D42F2F"/>
<g opacity="0.08">
<path d="M152 65.7L148.8 68.3C147.587 69.4923 146.872 71.1007 146.8 72.8H156.6V70.2H150.4C150.957 69.4245 151.673 68.7767 152.5 68.3C153.492 67.7274 154.401 67.0207 155.2 66.2C156.041 65.308 156.507 64.1262 156.5 62.9C156.523 62.2809 156.41 61.6643 156.168 61.094C155.926 60.5236 155.561 60.0136 155.1 59.6C154.123 58.7786 152.875 58.3507 151.6 58.4C148.5 58.4 146.9 60.1 146.9 63.4H149.6C149.6 61.6 150.3 60.7 151.7 60.7C151.979 60.6707 152.26 60.7057 152.523 60.8025C152.786 60.8992 153.024 61.055 153.217 61.2579C153.41 61.4608 153.554 61.7053 153.638 61.9727C153.722 62.2401 153.743 62.5231 153.7 62.8C153.8 63.9 153.2 64.8 152 65.7Z" fill="black"/>
<path d="M134.5 67.2H137.5C139 67.2 139.8 67.8 139.9 69.1C140 70.4 140.1 71.6 140.2 72.9H143.5V72.5C143 72.3 142.8 71.8 142.8 71C142.795 70.7299 142.828 70.4605 142.9 70.2V69.5C142.977 68.8043 142.848 68.1012 142.528 67.4787C142.207 66.8561 141.711 66.3418 141.1 66C141.797 65.7659 142.395 65.3021 142.794 64.6846C143.194 64.067 143.372 63.3321 143.3 62.6C143.34 62.0323 143.243 61.4632 143.017 60.9409C142.791 60.4187 142.442 59.9587 142 59.6C141.092 58.8863 139.953 58.5305 138.8 58.6H131.5V72.9H134.5V67.2ZM134.5 61H138.2C139.6 61 140.3 61.6 140.3 62.9C140.3 64.2 139.5 64.8 138 64.8H134.5V61Z" fill="black"/>
</g>
<path d="M0.599976 90.8C0.599976 90.8 33.3 87.6 51.2 87.6C69.1 87.6 99.5 90 99.5 90C99.5 90 96.4 45.3 94.7 38C93 30.7 87 16.7 77.8 10.1C68.6 3.5 65.9 0 55.1 0C44.3 0 29.7 6.4 20.5 21.4C11.3 36.4 0.599976 90.8 0.599976 90.8Z" fill="#00A4E8"/>
<path d="M99 83.2C99 83.2 72.9 78.8 50 78.8C27.1 78.8 2.1 83.2 2.1 83.2C1.1 87.9 0.5 90.8 0.5 90.8C0.5 90.8 33.2 87.6 51.1 87.6C69 87.6 99.5 90 99.5 90C99.5 90 99.4 87.3 99 83.2Z" fill="#D42F2F"/>
<g opacity="0.08">
<path d="M65.1 65.7L61.9 68.3C60.6871 69.4923 59.9723 71.1007 59.9 72.8H69.6V70.2H63.4C63.9569 69.4245 64.6728 68.7767 65.5 68.3C66.4922 67.7274 67.4008 67.0207 68.2 66.2C69.0414 65.308 69.507 64.1262 69.5 62.9C69.5232 62.2809 69.4098 61.6643 69.1678 61.094C68.9259 60.5236 68.5613 60.0136 68.1 59.6C67.1232 58.7786 65.8753 58.3507 64.6 58.4C61.5 58.4 59.9 60.1 59.9 63.4H62.6C62.6 61.6 63.3 60.7 64.7 60.7C64.9787 60.6707 65.2603 60.7057 65.5233 60.8025C65.7863 60.8992 66.0235 61.055 66.2168 61.2579C66.41 61.4608 66.5541 61.7053 66.6378 61.9727C66.7216 62.2401 66.7429 62.5231 66.7 62.8C66.7266 63.3839 66.5913 63.9638 66.3089 64.4756C66.0265 64.9874 65.6082 65.4111 65.1 65.7Z" fill="black"/>
<path d="M56.6 70.2H49.5V58.5H46.5V72.8H56.6V70.2Z" fill="black"/>
</g>
</g>
<defs>
<clipPath id="clip0_714_24">
<rect width="200" height="90.8" fill="white" transform="translate(0.5)"/>
</clipPath>
</defs>
</svg>
